<?xml version="1.0" encoding="UTF-8"?>
<svg viewBox="0 0 640 480" xmlns="http://www.w3.org/2000/svg">
 <g fill="#520">
  <path d="m332.79-297.77c-21.717 0.16516-42.58 18.716-46.431 45.385-2.5544 17.692-0.10547 29.902 9.1234 45.927 3.5615 6.4366 12.623 21.325 20.358 28.436 0.91034 0.83679 0.88214 3.1503-1.046 2.46-13.482-3.5542-28.678-2.8754-46.353 0.54236l3.4866 2.092c43.268-6.4906 74.137 16.446 91.796 44.707 1.3201-0.097137 2.6647-0.15497 4.0096-0.15497 0.44952 0 0.89044 0.008026 1.3366 0.019348-0.009521-0.30994-0.019348-0.61752-0.019348-0.92978 0-1.6635 0.14459-3.2921 0.4068-4.8814-6.6538-9.2421-14.625-18.194-23.806-26.382-11.811-10.535-34.992-47.963-22.721-58.227 12.373-10.351 32.558 1.2069 27.274 15.845-2.3911 6.6239-10.306 7.5124-8.1549 2.3244 2.5245-6.0901-4.1939-11.777-11.487-6.0436-5.3118 4.1761 1.1992 12.827 7.5157 14.315 9.0592 2.1341 17.498-5.7641 16.717-16.581-0.88855-12.308-20.729-21.984-32.039-13.172-11.309 8.812-5.069 26.918 1.1041 40.504 2.9912 6.5827 0.14453 6.2497-3.9709 2.0339-11.212-11.485-16.063-18.054-22.586-30.973-4.7641-9.4364-5.1964-18.731-3.1961-23.574 3.1884-7.7191 9.0151-9.5672 13.036-4.1452 3.9117 5.2744 6.9401 6.0489 8.6198 2.2663 1.9631-4.4206-4.9248-11.217-10.596-10.46-8.4134 1.1231-13.325 5.3712-14.431 12.533l-1.0848 6.9346-1.2203-8.891c-1.5765-11.344 2.2944-23.98 8.9298-29.21 7.4128-5.8428 17.782-2.9212 25.046 7.0702 6.2036 8.5324 11.485 10.719 13.734 5.6562 3.2256-7.2636-11.677-20.768-23.496-21.288-5.4331-0.23908-8.8004 0.65604-12.765 3.4286-8.6533 6.051-8.1829 3.3152 1.046-6.1017 13.934-14.218 26.439-15.395 43.486-4.029 10.455 6.9705 17.04 5.6484 15.612-3.1574-0.085571-0.52792-0.1919-1.0362-0.32935-1.5109-0.96136-3.3232-3.3143-5.4764-8.8135-8.3486-5.8621-3.0618-12.011-4.4627-18.092-4.4164v3.1e-5zm171.06 169.45c-1.2884 0.017273-2.6229 0.23746-3.9709 0.65857-2.7406 1.1067-5.3018 3.1089-7.1284 5.4044-4.8483 6.093-6.1969 22.115-5.0169 35.312 3.1135 34.821 5.6368 34.132-5.6949 52.9-12.502 20.706-31.064 19.456-59.796 17.704-8.9141-0.5434-16.336-2.1957-28.339-2.3826-12.775-0.74225-21.882 1.7036-31.961 4.2809 2.7809-2.0665 5.3693-4.2605 7.7869-6.5666-0.66632 0.024536-1.3229 0.038757-1.9952 0.038757-3.4491 0-6.8237-0.32782-10.092-0.94916-6.3898 5.713-14.238 10.623-23.768 14.044 1.1254 2.0642 1.9996 4.2745 2.5956 6.6054 4.2846-1.4316 8.3458-3.0996 12.165-4.9976 0.007751-0.003723 0.011658-0.015564 0.019348-0.019348 14.454-2.7241 30.168-4.3993 45.656-1.5303 14.307 2.1844 25.491 13.247 33.976 24.349 2.5101 3.634 4.723 8.7506 5.6562 12.92 0.49921 2.2304 1.1538 6.1356 1.0266 7.7288-0.29773 3.7304-3.2198 4.516-5.6561 5.9855-3.0288 1.8268-6.5227 3.884-8.4067 6.4503-2.6506 3.6107-1.992 7.2872 1.0847 9.4334 3.5856 2.3007 11.072 2.371 13.075-0.21307 1.5418-1.9885-0.33191-4.1944-6.3535-2.8475-6.2867 1.4063-5.0023-3.5558-2.5569-6.6246 1.7941-2.2515 4.7006-3.8082 6.8184-4.707 5.6212-2.3856 5.637-4.3192 4.8426-7.477-0.50769-2.0178-0.087341-2.0656 1.259-0.34863 11.296 14.43 20.984 23.05 29.675 25.259 8.6918 2.2094 12.04 2.2438 16.717 1.7434 4.6766-0.50049 8.5696-3.2899 9.0653-8.891 0.57507-6.4972-11.864-11.539-18.034-8.6199-1.2637 0.59802-1.838 2.83-0.38739 4.8039 2.4083 3.2768 6.6472 2.6007 6.1598-0.38739-0.47846-2.9326 2.5446-1.8224 5.3462 0.77478 3.2217 2.9867 2.2319 5.6583-1.1428 7.9418-2.2705 1.5364-4.3156 1.8147-11.138 1.4334-8.9578-1.4908-14.167-4.6504-18.789-8.5423-5.1699-4.3528-9.4332-9.7358-13.772-16.93-3.3556-5.5634-6.3589-11.684-12.029-21.462-0.4491-0.77448-2.7114-4.0176-4.2228-5.54-2.1308-2.1462-4.9106-4.6934-7.69-7.1283 0.49799 0.29486 0.99585 0.58154 1.4915 0.89105 38.943 17.93 20.878 17.24 100.67 48.058 78.345 30.26 100.57 13.01 172.49 1.1235 26.868-5.2753 59.509-18.726 67.603-23.399 38.248-22.083 43.205-2.8666 58.595 0.50366 2.5369 0.47278 5.3265 0.68353 7.7289 0.42615 5.0883-0.54529 10.005-0.91211 15.399-10.847 3.9802-7.3295 0.7522-13.8-6.3922-16.368-6.9006-2.48-8.438 0.99603-3.7966 8.5617 6.8086 13.291-1.9618 16.347-13.404 13.792-9.2487-2.0654-7.8088-3.9867-17.201-8.0774-19.31-8.4105-31.468 4.7016-25.394-3.3898 12.6-16.784 32.898-39.748 38.489-62.218 3.2723-13.152 0.81494-34.382-4.9587-42.809-4.2956-6.2682-10.273-13.049-21.152-12.997-1.1255 0.005493-2.3112 0.092529-3.5448 0.25177-16.607 2.1437-25.919 22.14-12.436 26.46 3.1193 0.99921 7.6206 2.2759 11.545-0.60052 6.5145-4.7753 2.7689-11.585-4.029-10.034-6.6716 1.5225-7.2144-1.995-2.4988-7.2445 5.4226-6.0368 13.864-6.8024 20.939-1.8402 18.994 16.892 15.163 48.99 0.56177 71.845-6.955 10.886-18.036 22.862-23.826 31.438-4.3994 6.5162-26.732 23.402-30.257 23.69-0.80579 0.065918 4.5656-9.1677 6.5472-15.128 6.2053-18.665 4.0149-39.352-9.2009-45.269-3.3743-1.5106-7.2562-2.3542-17.801 1.3947 12.731-2.4426 23.144 2.6762 25.646 15.07 3.6368 18.009-4.8112 34.306-14.431 43.196-15.058 13.917-93.051 30.261-132.92 29.579-5.0802-0.087036-8.4528-0.71576-2.5763-4.3196 21.864-10.997 32.164-20.913 38.198-36.688 2.3903-6.248 2.7959-12.279 3.5642-21.366 0.15247-2.5458 2.4706-10.695 5.4624-15.361 14.84-20.485 48.679-21.498 52.513-5.5593 6.2341 17.074-6.9281 35.283-20.32 27.06-7.6952-4.7253-7.0387-18.209 0.8523-17.782 4.8824 0.2644 6.0165 3.5924 2.402 6.8958-2.1152 1.9332-2.3014 2.8317-0.65857 2.9056 3.6642 0.16473 7.0774-4.2859 6.276-8.213-1.173-5.7477-8.7244-6.9317-14.354-2.247-11.383 9.4729-1.9379 26.564 13.676 24.794 6.3839-0.72363 11.275-4.7832 15.361-12.591 6.2623-17.816-0.16956-35.272-20.513-36.901-5.6467-0.45209-13.862 0.87341-18.518 3.1186 5.7571-8.564 13.554-16.603 18.867-20.087 6.7811-4.4465 9.2418-5.2743 15.38-5.2494 7.7052 0.031311 13.172 3.8922 14.237 9.7627 1.348 7.433-8.6599 13.106-12.862 7.6319-2.5745-3.3536 1.6809-5.5111 2.5375-3.3123 0.53406 1.3708 2.863 0.77399 3.2736-1.201 1.2648-6.0844-4.956-7.0895-7.6512-1.3753-2.9625 7.2619 3.2999 10.5 8.8523 9.1816 11.36-3.4196 10.632-17.09-1.201-22.547-3.8765-1.7876-8.9163-1.9919-14.179-0.83295-7.8484 2.0048-16.818 10.194-22.276 16.116-8.4508 9.1698-16.816 16.223-24.775 24.697-2.7399 3.0142-4.528 7.1453-4.5908 8.5424-0.070801 1.5741-2.853-9.69-7.5544-16.446-8.1749-11.747-14.847-15.892-23.109-17.956-6.0004-1.5657-14.333-0.30676-11.738 5.6561 2.0051 4.6082 4.7539 1.5966 14.741 3.0024 6.585 0.92694 11.511 3.4628 16.213 9.1816 8.2839 10.075 9.567 21.872 8.3486 34.983 1.0796 23.995-20.32 39.86-43.68 49.666-35.495 14.11-103.37-17.46-139.33-38.237-11.064-6.3918-18.883-10.967-26.46-14.857-6.1477-3.1562-12.136-5.8622-19.564-8.7167-0.57983-0.14606-2.2894-1.1589 0.15497-0.81354 70.531 5.1064 69.504-5.7436 93.733-49.356 12.456-18.985 37.422-14.63 37.54 2.7894 0.047607 7.042-6.1401 11.504-6.2179 5.8886-0.091309-6.592-9.2853-9.3715-13.714-1.2203-3.2258 5.937 6.1816 11.302 12.571 10.169 9.1642-1.6248 13.352-11.99 8.7941-21.83-4.2416-9.1572-10.772-11.488-20.978-10.867-11.556 0.70312-19.121 8.6096-26.596 22.353 0.18585-22.857-6.9502-41.2-1.6852-58.44 2.1656-7.0915 3.7782-9.5629 6.5278-11.274 4.0867-2.5425 8.9581-2.5066 10.983 1.8208 1.7608 3.763 0.44385 5.8776-2.7118 4.3196-3.2155-1.5876-6.4111 4.0129-3.6998 7.6319 1.6332 2.1798 5.6929 2.4936 7.3608 2.1307 4.911-1.0685 6.0952-9.0503 3.1961-14.722-2.2251-3.848-5.6841-5.6499-9.5496-5.598z"/>
  <path d="m530.46 17.65c4.5045-4.9348 9.7485-6.337 24.999-6.6848l6.2924-0.1435-3.231 1.4019c-4.1105 1.7836-6.2765 4.5632-9.5682 12.279-4.2297 9.9148-6.6799 13.264-11.158 15.254-2.13 0.94617-5.6814 1.6616-7.8918 1.5898l-4.019-0.1304 0.5952-1.7042c0.96314-2.7555 7.5028-13.513 9.5693-15.741 1.0466-1.1282 2.8044-2.6192 3.9066-3.3134l2.0038-1.262-2.6526 0.762c-5.2039 1.4949-9.9863 6.7702-15.226 16.795l-1.7467 3.3419 0.6328-3.4391c1.3225-7.1873 4.833-16.089 7.4946-19.005l2e-4 1e-4z"/>
  <path d="m516.22 61.236c-7.7927 2.8103-11.011 7.718-15.341 23.395l-1.7868 6.4686 2.7081-2.821c3.4449-3.5891 7.7403-4.787 18.975-5.2922 14.436-0.64923 19.572-1.9273 23.387-5.8199 1.8149-1.8515 3.6784-5.2634 4.1414-7.5818l0.8418-4.2154-2.448-0.025c-3.9582-0.039795-20.115 2.6865-23.642 3.9894-1.7858 0.65973-4.2408 1.9204-5.4556 2.8012l-2.2086 1.6017 1.6988-2.4626c3.3328-4.831 11.655-7.8012 26.495-9.4561l4.9471-0.5516-4.7963-0.6397c-10.023-1.3368-22.912-1.0515-27.517 0.60901v6.1e-5z"/>
  <path d="m788.13 22.778c-6.5358 0-11.828 5.292-11.828 11.828 0 6.5359 5.2921 11.856 11.828 11.856s11.828-5.3202 11.828-11.856-5.2921-11.828-11.828-11.828zm0 2.2811c5.279 0 9.5469 4.2679 9.5469 9.5468 0 5.279-4.2678 9.575-9.5469 9.575-5.2789 0-9.5468-4.296-9.5468-9.575 0-5.2789 4.2678-9.5468 9.5468-9.5468z"/>
  <path d="m792.19 34.618c0 2.2437-1.8188 4.0627-4.0626 4.0627s-4.0627-1.819-4.0627-4.0627c0-2.2438 1.819-4.0627 4.0627-4.0627 2.2438 0 4.0626 1.819 4.0626 4.0627z"/>
  <path d="m670.9 59.809c-3.0164 2.7343-6.6599 14.113-7.5552 23.594 0.69751-1.4144 4.4374-4.1303 7.0679-5.2971 5.1388-1.7105 6.8502-2.389 11.046-4.5074 1.2689-0.56915 3.3223-2.5847 3.7015-3.8234 0.34753-1.1352 1.0427-3.4058 1.0427-3.4058 0.91785-2.9981 1.5485-5.7268 1.4011-6.0635-4.7233-0.088745-9.0066 2.6843-12.521 5.5869-0.039551-3.1791 2.53-5.0677 5.7914-6.764l5.4416-2.7156-4.1455-0.0056c-5.18-0.006775-8.6743 1.0478-11.271 3.4016v1.83e-4z"/>
 </g>
 <path d="m720.42 58.196c6.3837 3.6963 9.0756 8.929 12.832 24.945l1.5502 6.6083-2.2457-3.1089c-2.8571-3.9551-6.3705-5.6453-15.522-7.4667-11.758-2.3402-15.957-4.2084-19.12-8.5074-1.5045-2.0449-3.0718-5.6388-3.483-7.9864l-0.7477-4.2685 1.9918 0.2633c3.2208 0.42621 16.41 5.0234 19.3 6.7269 1.4631 0.86267 3.4799 2.3982 4.4814 3.4125l1.8213 1.8441-1.4192-2.6356c-2.7841-5.1705-9.601-9.0873-21.703-12.47l-4.0344-1.1277 3.8939-0.0685c8.1376-0.14325 18.631 1.655 22.403 3.839l-1e-4 2e-4z" fill="#7f3f00"/>
 <g fill="#520">
  <path d="m649.4 23.314c-6.8948 0-12.487 5.5925-12.487 12.487 0 6.8946 5.5925 12.487 12.487 12.487 6.8946 0 12.487-5.5926 12.487-12.487 0-6.8947-5.5925-12.487-12.487-12.487zm0 2.9094c5.2859 0 9.5778 4.2919 9.5778 9.5779s-4.2919 9.5778-9.5778 9.5778-9.5779-4.2919-9.5779-9.5778c0-5.286 4.292-9.5779 9.5779-9.5779z"/>
  <path d="m651.61 35.803c0 1.2269-0.99451 2.2214-2.2214 2.2214-1.2268 0-2.2213-0.99457-2.2213-2.2214 0-1.2269 0.99451-2.2214 2.2213-2.2214 1.2269 0 2.2214 0.99451 2.2214 2.2214z"/>
 </g>
 <path d="m360.26-176.43c4.3033-1.1419 16.578 2.3274 25.453 7.1937 0.73315 0.40201 0.20563 0.5069-1.2297 0.24442-2.1473-0.39258-3.2961 0.058899-7.8809 3.0975-2.952 1.9564-7.4076 4.84-9.9018 6.4074l-4.5347 2.8502-5.8322-1.7328c-3.2077-0.953-5.9976-2.0094-6.1996-2.3476-0.20203-0.33814 1.5769-2.0785 3.9532-3.8675 3.8799-2.9209 6.0355-3.9965 11.419-5.6979 0.90753-0.28684-0.14514-0.5712-2.3393-0.63199-3.3727-0.093445-4.8893 0.41379-9.8098 3.2807l-5.8203 3.3912 2.6163-3.8288c3.2692-4.7843 6.4025-7.3757 10.107-8.3586v3.1e-5z" fill="#7f3f00"/>
 <path d="m330.28-147.86c-2.6141 2.2896-5.4622 11.483-5.9055 19.063-0.036682 0.62619 0.2597 0.33164 0.69092-0.68671 0.64502-1.5234 1.4434-2.0766 5.4769-3.7949 2.597-1.1063 6.4693-2.8037 8.6049-3.7723l3.8831-1.7608 1.2953-4.4015c0.71246-2.4208 1.1762-4.6163 1.0305-4.8789-0.14563-0.26257-2.0953 0.18195-4.3326 0.98779-3.6528 1.3157-5.3072 2.2633-8.7646 5.0198-0.58282 0.46463-0.32953-0.31857 0.5628-1.7405 1.3716-2.1857 2.3647-2.9511 6.4234-4.9512l4.801-2.3658-3.737 0.1513c-4.6696 0.18912-7.7788 1.1597-10.029 3.1306v3.1e-5 -3.1e-5z" fill="#520"/>
 <path d="m605.41-13.481c-4.0751 0.72229-28.115 10.794-28.305 11.859-0.038818 0.21747 1.55 0.13568 3.5305-0.18176 4.6802-0.75012 10.796 2.1105 19.455 9.0998 3.6271 2.9276 8.0924 5.5902 9.9231 5.9166 4.1428 0.73895 12.878-1.6414 16.834-4.5874l2.9797-2.2189-7.561-4.6102c-4.1586-2.5356-9.801-5.0262-12.539-5.5347-4.0779-0.75726-4.5526-1.0796-2.6265-1.7832 4.0684-1.4861 11.872 0.58948 18.948 5.0399 3.7537 2.3607 6.7407 3.847 6.6381 3.3029-0.36816-1.9503-9.1976-11.677-12.604-13.884-4.2966-2.7848-8.6005-3.4939-14.673-2.4176z" fill="#7f3f00"/>
 <g fill="#520">
  <path d="m455.12-50.801c-7.2541-1.3384-12.7 0.88989-25.963 10.623l-5.4723 4.0159 3.7271-0.9039c4.7417-1.15 8.5106-0.15161 16.65 4.4101 10.458 5.8615 14.864 7.1697 20.061 5.9571 2.4723-0.57678 5.9989-2.2901 7.837-3.8074l3.3419-2.7587-1.6852-1.0941c-2.725-1.7689-15.738-6.845-19.041-7.4276-1.6727-0.29504-4.2034-0.43823-5.6239-0.31818l-2.5826 0.2183 2.7913-1.0812c5.476-2.1211 13.203-0.66876 24.599 4.6238l3.7993 1.7644-2.9153-2.5823c-6.0924-5.3966-15.237-10.848-19.524-11.639l-1e-4 2e-4z"/>
  <path d="m468.27-12.401c-6.8947 0-12.487 5.5925-12.487 12.487 0 6.8947 5.5925 12.487 12.487 12.487 6.8947 0 12.487-5.5926 12.487-12.487 0-6.8946-5.5925-12.487-12.487-12.487zm0 2.9094c5.286 0 9.5779 4.2919 9.5779 9.5778 0 5.286-4.2919 9.5779-9.5779 9.5779-5.2859 0-9.5778-4.2919-9.5778-9.5779 0-5.2859 4.2919-9.5778 9.5778-9.5778z"/>
  <path d="m472.25 0.0875c0 2.2021-1.7852 3.9872-3.9872 3.9872-2.2021 0-3.9872-1.7852-3.9872-3.9872s1.7851-3.9871 3.9872-3.9871c2.202 0 3.9872 1.7851 3.9872 3.9871z" fill="#9e1225"/>
 </g>
 <path d="m511.14-26.072c5.7571 3.3334 8.1846 8.0524 11.573 22.496l1.3979 5.9597-2.0251-2.8037c-2.5767-3.567-5.7452-5.0912-13.998-6.7338-10.604-2.1105-14.391-3.7953-17.243-7.6724-1.3568-1.8442-2.7703-5.0853-3.1412-7.2025l-0.6743-3.8495 1.7964 0.2375c2.9047 0.38434 14.8 4.5302 17.405 6.0665 1.3195 0.77795 3.1382 2.1628 4.0416 3.0775l1.6425 1.663-1.2798-2.377c-2.5108-4.663-8.6586-8.1952-19.573-11.246l-3.6384-1.017 3.5117-0.0618c7.3388-0.12915 16.802 1.4926 20.204 3.4623l-1e-4 2e-4z" fill="#7f3f00"/>
 <g transform="rotate(179.67 129.61 504.64)">
  <g fill="#520">
   <path d="m-95.213 310.23c-21.717 0.16516-42.58 18.716-46.431 45.385-2.5544 17.692-0.10547 29.902 9.1234 45.927 3.5615 6.4366 12.623 21.325 20.358 28.436 0.91034 0.83679 0.88214 3.1503-1.046 2.4601-13.482-3.5542-28.678-2.8754-46.353 0.54236l3.4866 2.092c43.268-6.4905 74.137 16.446 91.796 44.707 1.3201-0.097168 2.6647-0.15503 4.0096-0.15503 0.44952 0 0.89044 0.008057 1.3366 0.019409-0.009521-0.30994-0.019348-0.61755-0.019348-0.92981 0-1.6635 0.14459-3.2921 0.4068-4.8814-6.6538-9.2421-14.625-18.194-23.806-26.382-11.811-10.535-34.992-47.963-22.721-58.227 12.373-10.35 32.558 1.207 27.274 15.845-2.3911 6.6239-10.306 7.5124-8.1549 2.3244 2.5245-6.0901-4.1939-11.777-11.487-6.0435-5.3118 4.1761 1.1992 12.827 7.5157 14.315 9.0592 2.1341 17.498-5.7641 16.717-16.581-0.88855-12.308-20.729-21.984-32.039-13.172-11.309 8.812-5.069 26.918 1.1041 40.503 2.9912 6.5827 0.14453 6.2498-3.9709 2.0339-11.212-11.485-16.063-18.054-22.586-30.973-4.7641-9.4364-5.1964-18.731-3.1961-23.574 3.1884-7.7191 9.0151-9.5672 13.036-4.1453 3.9117 5.2744 6.9401 6.049 8.6198 2.2664 1.9631-4.4206-4.9248-11.217-10.596-10.46-8.4134 1.1231-13.325 5.3712-14.431 12.533l-1.0848 6.9346-1.2203-8.891c-1.5765-11.344 2.2944-23.98 8.9298-29.211 7.4128-5.8428 17.782-2.9211 25.046 7.0702 6.2036 8.5325 11.485 10.719 13.734 5.6562 3.2256-7.2636-11.677-20.768-23.496-21.288-5.4331-0.23914-8.8004 0.65601-12.765 3.4285-8.6533 6.051-8.1829 3.3152 1.046-6.1017 13.934-14.218 26.439-15.395 43.486-4.029 10.455 6.9705 17.04 5.6483 15.612-3.1574-0.085571-0.52789-0.1919-1.0362-0.32935-1.5109-0.96136-3.3232-3.3143-5.4764-8.8135-8.3486-5.8621-3.0618-12.011-4.4626-18.092-4.4164zm171.06 169.45c-1.2884 0.017273-2.6229 0.23749-3.9709 0.65857-2.7406 1.1067-5.3018 3.1088-7.1284 5.4044-4.8483 6.093-6.1969 22.115-5.0169 35.312 3.1135 34.821 5.6368 34.132-5.6949 52.9-12.502 20.706-31.064 19.456-59.796 17.704-8.9141-0.5434-16.336-2.1957-28.339-2.3826-12.775-0.74225-21.882 1.7036-31.961 4.2809 2.7809-2.0665 5.3693-4.2605 7.7869-6.5666-0.66632 0.024536-1.3229 0.038757-1.9952 0.038757-3.4491 0-6.8237-0.32782-10.092-0.94916-6.3898 5.713-14.238 10.623-23.768 14.044 1.1254 2.0642 1.9996 4.2745 2.5956 6.6054 4.2846-1.4316 8.3458-3.0996 12.165-4.9976 0.007751-0.003723 0.011658-0.015564 0.019348-0.019348 14.454-2.7241 30.168-4.3993 45.656-1.5303 14.307 2.1844 25.491 13.247 33.976 24.349 2.5101 3.634 4.723 8.7506 5.6562 12.92 0.49921 2.2304 1.1538 6.1356 1.0266 7.7288-0.29773 3.7304-3.2198 4.516-5.6561 5.9855-3.0288 1.8268-6.5227 3.884-8.4067 6.4503-2.6506 3.6107-1.992 7.2872 1.0847 9.4334 3.5856 2.3007 11.072 2.371 13.075-0.21307 1.5418-1.9885-0.33191-4.1944-6.3535-2.8475-6.2867 1.4063-5.0023-3.5558-2.5569-6.6246 1.7941-2.2515 4.7006-3.8082 6.8184-4.707 5.6212-2.3856 5.637-4.3192 4.8426-7.477-0.50769-2.0178-0.087341-2.0656 1.259-0.34863 11.296 14.43 20.984 23.05 29.675 25.259 8.6918 2.2094 12.04 2.2438 16.717 1.7434 4.6766-0.50049 8.5696-3.2899 9.0653-8.891 0.57507-6.4972-11.864-11.539-18.034-8.6199-1.2637 0.59802-1.838 2.83-0.38739 4.8039 2.4083 3.2768 6.6472 2.6007 6.1598-0.38739-0.47846-2.9326 2.5446-1.8224 5.3462 0.77478 3.2217 2.9867 2.2319 5.6583-1.1428 7.9418-2.2705 1.5364-4.3156 1.8147-11.138 1.4334-8.9578-1.4908-14.167-4.6504-18.789-8.5423-5.1699-4.3528-9.4332-9.7358-13.772-16.93-3.3556-5.5634-6.3589-11.684-12.029-21.462-0.4491-0.77448-2.7114-4.0176-4.2228-5.54-2.1308-2.1462-4.9106-4.6934-7.69-7.1283 0.49799 0.29486 0.99585 0.58154 1.4915 0.89105 38.943 17.93 20.878 17.24 100.67 48.058 78.345 30.26 100.57 13.01 172.49 1.1235 26.868-5.2753 59.509-18.726 67.603-23.399 38.248-22.083 43.205-2.8666 58.595 0.50366 2.5369 0.47278 5.3265 0.68353 7.7289 0.42615 5.0883-0.54529 10.005-0.91211 15.399-10.847 3.9802-7.3295 0.7522-13.8-6.3922-16.368-6.9006-2.48-8.438 0.99603-3.7966 8.5617 6.8086 13.291-1.9618 16.347-13.404 13.792-9.2487-2.0654-7.8088-3.9867-17.201-8.0774-19.31-8.4105-31.468 4.7016-25.394-3.3898 12.6-16.784 32.898-39.748 38.489-62.218 3.2723-13.152 0.81494-34.382-4.9587-42.809-4.2956-6.2682-10.273-13.049-21.152-12.997-1.1255 0.005493-2.3112 0.092529-3.5448 0.25177-16.607 2.1437-25.919 22.14-12.436 26.46 3.1193 0.99921 7.6206 2.2759 11.545-0.60052 6.5145-4.7753 2.7689-11.585-4.029-10.034-6.6716 1.5225-7.2144-1.995-2.4988-7.2445 5.4226-6.0368 13.864-6.8024 20.939-1.8402 18.994 16.892 15.163 48.99 0.56177 71.845-6.955 10.886-18.036 22.862-23.826 31.438-4.3994 6.5162-26.732 23.402-30.257 23.69-0.80579 0.065918 4.5656-9.1677 6.5472-15.128 6.2053-18.665 4.0149-39.352-9.2009-45.269-3.3743-1.5106-7.2562-2.3542-17.801 1.3947 12.731-2.4426 23.144 2.6762 25.646 15.07 3.6368 18.009-4.8112 34.306-14.431 43.196-15.058 13.917-93.051 30.261-132.92 29.579-5.0802-0.087036-8.4528-0.71576-2.5763-4.3196 21.864-10.997 32.164-20.913 38.198-36.688 2.3903-6.248 2.7959-12.279 3.5642-21.366 0.15247-2.5458 2.4706-10.695 5.4624-15.361 14.84-20.485 48.679-21.498 52.513-5.5593 6.2341 17.074-6.9281 35.283-20.32 27.06-7.6952-4.7253-7.0387-18.209 0.8523-17.782 4.8824 0.2644 6.0165 3.5924 2.402 6.8958-2.1152 1.9332-2.3014 2.8317-0.65857 2.9056 3.6642 0.16473 7.0774-4.2859 6.276-8.213-1.173-5.7477-8.7244-6.9317-14.354-2.247-11.383 9.4729-1.9379 26.564 13.676 24.794 6.3839-0.72363 11.275-4.7832 15.361-12.591 6.2623-17.816-0.16956-35.272-20.513-36.901-5.6467-0.45209-13.862 0.87341-18.518 3.1186 5.7571-8.564 13.554-16.603 18.867-20.087 6.7811-4.4465 9.2418-5.2743 15.38-5.2494 7.7052 0.031311 13.172 3.8922 14.237 9.7627 1.348 7.433-8.6599 13.106-12.862 7.6319-2.5745-3.3536 1.6809-5.5111 2.5375-3.3123 0.53406 1.3708 2.863 0.77399 3.2736-1.201 1.2648-6.0844-4.956-7.0895-7.6512-1.3753-2.9625 7.2619 3.2999 10.5 8.8523 9.1816 11.36-3.4196 10.632-17.09-1.201-22.547-3.8765-1.7876-8.9163-1.9919-14.179-0.83295-7.8484 2.0048-16.818 10.194-22.276 16.116-8.4508 9.1698-16.816 16.223-24.775 24.697-2.7399 3.0142-4.528 7.1453-4.5908 8.5424-0.070801 1.5741-2.853-9.69-7.5544-16.446-8.1749-11.747-14.847-15.892-23.109-17.956-6.0004-1.5657-14.333-0.30676-11.738 5.6561 2.0051 4.6082 4.7539 1.5966 14.741 3.0024 6.585 0.92694 11.511 3.4628 16.213 9.1816 8.2839 10.075 9.567 21.872 8.3486 34.983 1.0796 23.995-20.32 39.86-43.68 49.666-35.495 14.11-103.37-17.46-139.33-38.237-11.064-6.3918-18.883-10.967-26.46-14.857-6.1477-3.1562-12.136-5.8622-19.564-8.7167-0.57983-0.14606-2.2894-1.1589 0.15497-0.81354 70.531 5.1064 69.504-5.7436 93.733-49.356 12.456-18.985 37.422-14.63 37.54 2.7894 0.047607 7.042-6.1401 11.504-6.2179 5.8886-0.091309-6.592-9.2853-9.3715-13.714-1.2203-3.2258 5.937 6.1816 11.302 12.571 10.169 9.1642-1.6248 13.352-11.99 8.7941-21.83-4.2416-9.1572-10.772-11.488-20.978-10.867-11.556 0.70312-19.121 8.6096-26.596 22.353 0.18585-22.857-6.9502-41.2-1.6852-58.44 2.1656-7.0914 3.7782-9.5629 6.5278-11.274 4.0867-2.5425 8.9581-2.5066 10.983 1.8208 1.7608 3.7631 0.44385 5.8776-2.7118 4.3196-3.2155-1.5875-6.4111 4.0129-3.6998 7.632 1.6332 2.1798 5.6929 2.4936 7.3608 2.1307 4.911-1.0685 6.0952-9.0503 3.196-14.722-2.2251-3.8481-5.6841-5.65-9.5496-5.598z"/>
   <path d="m102.46 625.65c4.5045-4.9348 9.7485-6.337 24.999-6.6848l6.2924-0.1435-3.231 1.4019c-4.1105 1.7836-6.2765 4.5632-9.5682 12.279-4.2297 9.9148-6.6799 13.264-11.158 15.254-2.13 0.94617-5.6814 1.6616-7.8918 1.5898l-4.019-0.1304 0.5952-1.7042c0.96314-2.7555 7.5028-13.513 9.5693-15.741 1.0466-1.1282 2.8044-2.6192 3.9066-3.3134l2.0038-1.262-2.6526 0.762c-5.2039 1.4949-9.9863 6.7702-15.226 16.795l-1.7467 3.3419 0.6328-3.4391c1.3225-7.1873 4.833-16.089 7.4946-19.005l2e-4 1e-4z"/>
   <path d="m88.221 669.24c-7.7927 2.8103-11.011 7.718-15.341 23.395l-1.7868 6.4686 2.7081-2.821c3.4449-3.5891 7.7403-4.787 18.975-5.2922 14.436-0.64923 19.572-1.9273 23.387-5.8199 1.8149-1.8515 3.6784-5.2634 4.1414-7.5818l0.8418-4.2154-2.448-0.025c-3.9582-0.039795-20.115 2.6865-23.642 3.9894-1.7858 0.65973-4.2408 1.9204-5.4556 2.8012l-2.2085 1.6017 1.6987-2.4626c3.3328-4.831 11.655-7.8012 26.495-9.4561l4.9471-0.5516-4.7963-0.6397c-10.023-1.3368-22.912-1.0515-27.517 0.60901v6.1e-5z"/>
   <path d="m360.13 630.78c-6.5358 0-11.828 5.292-11.828 11.828 0 6.5359 5.2921 11.856 11.828 11.856s11.828-5.3202 11.828-11.856-5.2921-11.828-11.828-11.828zm0 2.2811c5.279 0 9.5469 4.2679 9.5469 9.5468 0 5.279-4.2678 9.575-9.5469 9.575-5.2789 0-9.5468-4.296-9.5468-9.575 0-5.2789 4.2678-9.5468 9.5468-9.5468z"/>
   <path d="m364.19 642.62c0 2.2437-1.8188 4.0627-4.0626 4.0627s-4.0627-1.819-4.0627-4.0627c0-2.2438 1.819-4.0627 4.0627-4.0627 2.2438 0 4.0626 1.819 4.0626 4.0627z"/>
   <path d="m242.9 667.81c-3.0164 2.7343-6.6599 14.113-7.5552 23.594 0.69751-1.4144 4.4374-4.1303 7.0679-5.2971 5.1388-1.7105 6.8502-2.389 11.046-4.5074 1.2689-0.56915 3.3223-2.5847 3.7015-3.8234 0.34753-1.1352 1.0427-3.4058 1.0427-3.4058 0.91785-2.9981 1.5485-5.7268 1.4011-6.0635-4.7233-0.088745-9.0066 2.6843-12.521 5.5869-0.039551-3.1791 2.53-5.0677 5.7914-6.764l5.4417-2.7156-4.1455-0.0056c-5.18-0.006775-8.6743 1.0478-11.271 3.4016v1.83e-4z"/>
  </g>
  <path d="m292.42 666.2c6.3837 3.6963 9.0756 8.929 12.832 24.945l1.5502 6.6083-2.2457-3.1089c-2.8571-3.9551-6.3705-5.6453-15.522-7.4667-11.758-2.3402-15.957-4.2084-19.12-8.5074-1.5045-2.0449-3.0718-5.6388-3.483-7.9864l-0.7477-4.2685 1.9918 0.2633c3.2208 0.42621 16.41 5.0234 19.3 6.7269 1.4631 0.86267 3.4799 2.3982 4.4814 3.4125l1.8213 1.8441-1.4192-2.6356c-2.7841-5.1705-9.601-9.0873-21.703-12.47l-4.0344-1.1277 3.8939-0.0685c8.1376-0.14325 18.631 1.655 22.403 3.839l-1e-4 2e-4z" fill="#7f3f00"/>
  <g fill="#520">
   <path d="m221.4 631.31c-6.8948 0-12.487 5.5925-12.487 12.487 0 6.8946 5.5925 12.487 12.487 12.487 6.8946 0 12.487-5.5926 12.487-12.487 0-6.8947-5.5925-12.487-12.487-12.487zm0 2.9094c5.2859 0 9.5778 4.2919 9.5778 9.5779s-4.2919 9.5778-9.5778 9.5778-9.5779-4.2919-9.5779-9.5778c0-5.286 4.292-9.5779 9.5779-9.5779z"/>
   <path d="m223.61 643.8c0 1.2269-0.99451 2.2214-2.2214 2.2214-1.2268 0-2.2213-0.99457-2.2213-2.2214 0-1.2269 0.99451-2.2214 2.2213-2.2214 1.2269 0 2.2214 0.99451 2.2214 2.2214z"/>
  </g>
  <path d="m-67.744 431.57c4.3033-1.1419 16.578 2.3274 25.453 7.1937 0.73315 0.40198 0.20563 0.50684-1.2297 0.24438-2.1473-0.39258-3.2961 0.058899-7.8809 3.0975-2.952 1.9564-7.4076 4.84-9.9018 6.4075l-4.5347 2.8502-5.8322-1.7327c-3.2077-0.953-5.9976-2.0095-6.1996-2.3477-0.20203-0.33814 1.5769-2.0785 3.9532-3.8674 3.8799-2.9209 6.0355-3.9965 11.419-5.698 0.90753-0.2868-0.14514-0.57117-2.3393-0.63196-3.3727-0.093445-4.8893 0.41382-9.8098 3.2807l-5.8203 3.3912 2.6163-3.8288c3.2692-4.7844 6.4025-7.3757 10.107-8.3586v6.1e-5z" fill="#7f3f00"/>
  <path d="m-97.72 460.14c-2.6141 2.2897-5.4622 11.483-5.9055 19.063-0.036682 0.62622 0.2597 0.33166 0.69092-0.68665 0.64502-1.5234 1.4434-2.0767 5.4769-3.7949 2.597-1.1063 6.4693-2.8036 8.6049-3.7722l3.8831-1.7609 1.2953-4.4015c0.71246-2.4208 1.1762-4.6163 1.0305-4.8789-0.14563-0.26257-2.0953 0.18201-4.3326 0.98779-3.6528 1.3157-5.3072 2.2634-8.7646 5.0198-0.58282 0.4646-0.32953-0.3186 0.5628-1.7405 1.3716-2.1857 2.3647-2.9511 6.4234-4.9512l4.801-2.3658-3.737 0.1513c-4.6696 0.18915-7.7788 1.1597-10.029 3.1306v6.1e-5 -6.1e-5z" fill="#520"/>
  <path d="m177.41 594.52c-4.0751 0.72229-28.115 10.794-28.305 11.859-0.038818 0.21747 1.55 0.13568 3.5305-0.18176 4.6802-0.75012 10.796 2.1105 19.455 9.0998 3.6271 2.9276 8.0924 5.5902 9.9231 5.9166 4.1428 0.73895 12.878-1.6414 16.834-4.5874l2.9797-2.2189-7.561-4.6102c-4.1586-2.5356-9.801-5.0262-12.539-5.5347-4.0779-0.75726-4.5526-1.0796-2.6265-1.7832 4.0684-1.4861 11.872 0.58948 18.948 5.0399 3.7537 2.3607 6.7407 3.847 6.6381 3.3029-0.36816-1.9503-9.1976-11.677-12.604-13.884-4.2966-2.7848-8.6005-3.4939-14.673-2.4176z" fill="#7f3f00"/>
  <g fill="#520">
   <path d="m27.117 557.2c-7.2541-1.3384-12.7 0.88989-25.963 10.623l-5.4723 4.0159 3.7271-0.9039c4.7417-1.15 8.5106-0.15161 16.65 4.4101 10.458 5.8615 14.864 7.1697 20.061 5.9571 2.4723-0.57678 5.9989-2.2901 7.837-3.8074l3.3419-2.7587-1.6852-1.0941c-2.725-1.7689-15.738-6.845-19.041-7.4276-1.6727-0.29504-4.2034-0.43823-5.6239-0.31818l-2.5826 0.2183 2.7913-1.0812c5.476-2.1211 13.203-0.66876 24.599 4.6238l3.7993 1.7644-2.9153-2.5823c-6.0924-5.3965-15.237-10.848-19.524-11.639l-1e-4 2e-4z"/>
   <path d="m40.271 595.6c-6.8947 0-12.487 5.5925-12.487 12.487 0 6.8947 5.5925 12.487 12.487 12.487 6.8947 0 12.487-5.5926 12.487-12.487 0-6.8946-5.5925-12.487-12.487-12.487zm0 2.9094c5.286 0 9.5779 4.2919 9.5779 9.5778 0 5.286-4.2919 9.5779-9.5779 9.5779-5.2859 0-9.5778-4.2919-9.5778-9.5779 0-5.2859 4.2919-9.5778 9.5778-9.5778z"/>
   <path d="m44.255 608.09c0 2.2021-1.7852 3.9872-3.9872 3.9872-2.2021 0-3.9872-1.7852-3.9872-3.9872s1.7851-3.9871 3.9872-3.9871c2.202 0 3.9872 1.7851 3.9872 3.9871z" fill="#9e1225"/>
  </g>
  <path d="m83.139 581.93c5.7571 3.3334 8.1846 8.0524 11.573 22.496l1.3979 5.9597-2.0251-2.8037c-2.5767-3.567-5.7452-5.0912-13.998-6.7338-10.604-2.1105-14.391-3.7953-17.243-7.6724-1.3568-1.8442-2.7703-5.0853-3.1412-7.2025l-0.6743-3.8495 1.7964 0.2375c2.9047 0.38434 14.8 4.5302 17.405 6.0665 1.3195 0.77795 3.1382 2.1628 4.0416 3.0775l1.6426 1.663-1.2799-2.377c-2.5108-4.663-8.6586-8.1952-19.573-11.246l-3.6384-1.017 3.5117-0.0618c7.3387-0.12915 16.802 1.4926 20.204 3.4623v1.83e-4z" fill="#7f3f00"/>
 </g>
 <g fill="#502d16">
  <path d="m78.003 126.09c-8.6003 0-15.564 6.9636-15.564 15.564 0 8.6003 6.9636 15.601 15.564 15.601 8.6002 0 15.564-7.0007 15.564-15.601s-6.9636-15.564-15.564-15.564zm0 3.0015c6.9464 0 12.562 5.616 12.562 12.562 0 6.9464-5.6159 12.599-12.562 12.599-6.9464 0-12.562-5.653-12.562-12.599 0-6.9464 5.6159-12.562 12.562-12.562z"/>
  <path d="m82.496 141.67c0 2.4808-2.0111 4.4919-4.492 4.4919-2.4808 0-4.4919-2.0111-4.4919-4.4919s2.0111-4.492 4.4919-4.492 4.492 2.0112 4.492 4.492z"/>
  <path d="m-138.17 95.189c-5.9017 0-10.689 4.7871-10.689 10.689 0 5.9017 4.787 10.689 10.689 10.689 5.9017 0 10.689-4.7871 10.689-10.689 0-5.9016-4.787-10.689-10.689-10.689zm0 2.4904c4.5246 0 8.1984 3.6738 8.1984 8.1983 0 4.5247-3.6738 8.1984-8.1984 8.1984s-8.1984-3.6737-8.1984-8.1984c0-4.5246 3.6737-8.1983 8.1984-8.1983z"/>
  <path d="m-136.53 105.88c0 0.90305-0.73202 1.6351-1.6351 1.6351-0.90302 0-1.6351-0.73209-1.6351-1.6351 0-0.90302 0.73206-1.635 1.6351-1.635 0.90308 0 1.6351 0.73202 1.6351 1.635z"/>
 </g>
 <g fill="#520">
  <path d="m164.12 8.0563c-6.8947 0-12.487 5.5925-12.487 12.487 0 6.8947 5.5926 12.487 12.487 12.487 6.8947 0 12.487-5.5926 12.487-12.487 0-6.8947-5.5925-12.487-12.487-12.487zm0 2.9094c5.2859 0 9.5778 4.2919 9.5778 9.5778 0 5.286-4.2919 9.5778-9.5778 9.5778s-9.5778-4.2918-9.5778-9.5778c0-5.2859 4.2919-9.5778 9.5778-9.5778z"/>
  <path d="m166.34 20.545c0 1.2269-0.99454 2.2214-2.2214 2.2214-1.2268 0-2.2214-0.99454-2.2214-2.2214s0.99457-2.2214 2.2214-2.2214c1.2269 0 2.2214 0.99457 2.2214 2.2214z" fill="#9e1225"/>
  <path d="m-90.488-131.98c-2.299-0.026978-4.52 0.52402-6.373 1.879-6.836 5-3.781 19.097 3.506 17.937 1.686-0.26898 3.881-2.102 4.61-4.727 1.21-4.357-1.94-6.096-4.358-3.448-2.373 2.599-4.379 1.105-4.107-3.041 0.313-4.767 3.715-7.41 8.446-6.528 3.183 0.59399 5.614 1.564 9.956 7.574 19.228 26.617 8.232 41.517 30.373 78.838-11.96-10.086-21.87-14.704-32.891-11.158-9.733 3.133-14.971 7.671-15.593 17.744-0.668 10.824 6.988 18.961 16.116 17.142 6.364-1.268 13.183-9.685 8.02-14.043-7.09-5.983-14.651-0.052979-12.339 6.121 1.969 5.259-5.407 3.362-7.923-3.216-6.224-16.269 15.45-29.408 33.956-16.251 25.545 21.096 38.385 36.594 56.775 48.929 15.089 10.122 43.413 23.785 59.041 31.69 15.902 7.989 33.583 12.267 54.741 13.25 3.033 0.14099 2.58 0.487-2.906 2.13-19.278 5.777-35.077 12.879-51.022 22.993-30.552 19.277-91.437 57.508-132.18 45.404-30.366-9.02-45.359-23.532-74.072-56.639-6.217-7.168-4.418-11.605-2.828-20.416 1.821-10.094 4.221-15.565 10.828-19.216 6.36-3.514 12.744-6.431 12.474-9.259-0.465-4.873-9.271-2.727-16.29 4.01-5.645 5.418-9.864 16.844-10.712 28.997-0.41302 5.916-1.096 8.983-1.782 8.078-0.60901-0.80301-3.423-2.235-6.218-3.196-23.413-13.307-44.449 9.412-61.54 12.881-14.56 2.956-27.811 1.072-37.83-13.579-7.8754-12.043-18.84-36.383 0.8523-43.312l3.661-0.213-3.7191 1.472c-6.7415 2.664-5.6037 11.328 1.4915 11.371 5.0659 0.030029 7.8404-2.97 7.3607-8-0.52191-5.474-4.1436-8.762-9.0847-8.291-0.94669 0.091003-1.8258 0.30701-2.6731 0.62-5.931 2.193-11.509 9.126-10.344 20.726 3.8127 37.973 36.076 54.692 67.525 35.952 12.33-7.348 24.06-9.919 15.07-3.39-11.065 9.703-8.076 22.27 2.925 30.276 5.617 2.96 10.174 3.363 14.256 1.182 9.985-5.337 8.612-19.338-2.014-20.301-5.255-0.47601-9.248 3.317-7.593 7.206 1.131 2.657 4.983 3.902 7.089 2.305 0.944-0.715 0.457-1.171-1.588-1.453-3.495-0.48099-4.182-2.921-1.395-5.075 4.506-3.481 10.399 4.239 7.768 10.189-4.58 10.355-19.823 4.948-23.109-7.729-4.245-11.021 16.233-24.269 33.414-18.188 3.683 1.544 8.398 5.429 9.53 6.876 27.574 35.273 51.868 54.21 80.368 61.017 8.567 2.046 16.546 3.057 24.019 3.254-71.446 15.034-140.09-20.449-177.88-26.247-13.866-2.127-17.247-0.871-22.198 0.32999-25.207 6.109-23.43-18.996-35.583-19.797-2.4155-0.159-3.0021-0.272-4.6102-0.232-2.0674 0.050995-3.8594 0.99802-5.8692 2.905-3.3141 3.146-3.8133 8.086-1.1235 11.022 2.5978 2.836 4.1787 1.07 3.9128-4.358 0.25382-14.668 14.434-5.295 19.041 3.622 6.5664 12.709 18.501 8.952 13.114 12.978-10.097 7.545-25.335 17.263-33.588 29.579-4.8308 7.208-9.0241 20.373-8.4455 26.537 0.47507 5.06 1.7606 10.885 8.3292 12.455 8.2898 1.982 17.664-8.119 12.455-13.346-1.2049-1.209-2.9763-2.865-5.5304-1.918-4.2403 1.571-4.2016 6.361-0.63892 6.77 3.4964 0.40198 2.8511 2.625-0.66849 4.833-4.0474 2.539-8.1716 1.33-10.228-3.022-1.3833-2.928-1.3473-5.239 0.30991-12.474 1.1188-4.885 3.5299-11.518 5.3268-14.741 6.1163-10.969 20.886-25.469 31.496-30.876 4.4877-2.288 18.642-7.438 19.738-7.187 0.40729 0.093018-2.2559 2.272-5.908 4.843-8.3201 5.856-15.864 17.889-18.15 28.939l-1.4915 7.206 2.305-6.179c3.9166-10.568 8.8366-18.176 14.954-23.09 11.11-8.924 19.32-10.885 41.976-6.101 29.124 6.149 114.81 45.357 193.47 12.261 32.171-11.033 53.72-35.963 77.327-43.448-32.321 25.304-46.554 71.641-78.644 99.177-8.424 7.229-18.658 10.146-24.058 10.44-5.401 0.29498-9.905-2.179-11.429-6.76-1.428-4.295 0.591-10.698 4.378-13.927 2.97-2.532 4.805-6.614 3.642-8.078-2.563-3.222-9.52 1.583-11.913 8.233-2.375 6.597-1.437 12.029 2.828 16.464 2.108 2.192 3.274 4.115 2.576 4.262-1.751 0.37-9.857-2.082-15.496-8.174-5.639-6.093-8.939-19.647-2.983-23.652 5.901-3.968 5.956-8.457 2.382-9.743-8.096-2.914-15.742 12.45-6.024 29.482s29.302 18.957 50.906 9.336c21.598-9.617 52.113-68.202 82.672-97.413 11.92-13.945 22.868-14.64 15.051-3.177-41.621 73.098-88.336 130.28-160.52 156.98-19.319 7.145-45.77 1.419-57.278-8.639-9.369-7.606-6.296-21.4 1.491-31.147-25.841 27.213 2.486 47.624 33.356 46.217 7.748-1.198 4.51-0.026978-6.431 3.352-31.683 5.99-86.753-1.876-88.968-42.363-0.242-8.257 4.582-15.72 10.867-16.795 6.313-1.079 10.026 8.453 3.99 10.247-3.486 1.037-4.812-0.29303-1.937-1.956 1.76-1.019 1.838-1.557 0.349-2.576-2.702-1.849-5.639 1.444-3.661 4.106 2.195 2.956 8.193 1.708 9.317-1.937 1.075-3.488-0.91199-7.628-3.671-8.823-16.014-6.939-25.067 15.536-14.692 35.089 10.374 19.554 45.581 31.981 73.762 29.114 133.92-13.571 191.16-141.9 221.52-181.75 25.958-16.016 55.975-22.668 81.936-18.17 12.066 2.091 12.477 2.089 11.797-0.40598-0.67001-2.456-1.53-2.767-16.62-5.54-16.9-3.106-27.867-3.878-47.07-3.351-7.212 0.19702-18.794-0.68399-29.52-2.267-16.668-2.459-18.218-2.878-27.836-7.554-16.758-8.15-25.957-18.856-24.116-28.087 1.189-5.96 4.939-8.149 11.177-6.47 5.735 1.544 7.903 0.68399 8.232-3.293 0.271-3.272-4.792-6.594-9.878-6.489-8.123 0.168-15.25 9.381-13.792 17.84 1.049 6.087 2.719 9.084 8.135 14.605 5.482 5.589 4.351 5.456-2.576-0.31-20.409-16.988-26.478-37.72-14.218-48.445 5.636-4.93 11.1-5.509 22.993-2.479 6.55 1.668 9.929 1.985 12.203 1.143 4.067-1.508 4.773-4.823 1.802-8.504-3.782-4.685-8.833-6.232-18.112-5.54-15.361 1.145-26.434 10.705-27.602 23.806-0.647 7.246-2.052 4.914-2.577-4.261-0.64801-11.332 2.433-23.873 7.361-29.986 6.084-7.546 14.834-11.61 26.731-12.455 10.368-0.73599 17.311-3.718 18.247-7.806 0.74701-3.26-3.518-8.874-7.399-9.763-1.281-0.293-2.712-0.46198-4.204-0.48398-0.40399-0.006012-0.824-0.013-1.239 0-6.239 0.20099-13.694 2.552-19.816 6.392-18.018 11.302-26.723 29.874-24.058 51.429 1.828 14.789 7.416 27.647 18.188 40.522-15.857-5.421-46.243-25.405-64.91-44.958-19.901-20.876-22.433-36.997-32.193-70.566-3.7-12.724-11.959-27.342-17.376-30.334-2.567-1.419-5.645-2.407-8.6-2.441z"/>
  <path d="m51.918 185.44c2.2353 5.8585-0.80981 23.564-6.3141 36.712-0.45471 1.0863-0.67956 0.36292-0.52408-1.6863 0.2326-3.0654-0.56961-4.6078-5.5031-10.58-3.1764-3.8455-7.8736-9.6599-10.438-12.922l-4.6622-5.9299 1.565-8.4247c0.86075-4.6335 1.9281-8.6971 2.3718-9.0302 0.44379-0.33295 3.1443 1.9015 6.0011 4.9654 4.6644 5.0025 6.4894 7.8627 9.6681 15.152 0.53586 1.2287 0.7786-0.28778 0.53946-3.3699-0.36758-4.7376-1.3021-6.7867-6.0447-13.255l-5.6099-7.6508 5.7493 3.0985c7.1841 3.8718 11.277 7.8774 13.201 12.92h-3.1e-5 3.1e-5z"/>
 </g>
 <g fill="#7f3f00">
  <path d="m-124.42 263.48c-0.90692 2.3256-1.3407 7.1367-0.96397 10.691l0.685 6.4629 1.4005-2.8244c0.77026-1.5535 2.9138-3.6501 4.7633-4.6592 4.8597-2.6514 7.299-6.4673 6.8447-10.707-0.50487-4.7114-1.6062-4.9943-4.9725-1.2772-1.4838 1.6384-3.2224 3.2436-3.8637 3.5672-1.8579 0.93732 2.2213-5.1157 4.2171-6.2576 3.4445-1.971 0.64316-3.1005-2.8978-1.1685-2.2686 1.2377-4.1628 3.4808-5.2125 6.1726z"/>
  <path d="m-13.134 247.2c-0.49582 10.85-0.98395 12.655-2.2654 8.3779-0.68576-2.2889-3.0249-4.4933-8.2658-7.7894-4.0201-2.5284-8.0735-5.4308-9.0075-6.4499-1.8382-2.0056-3.0191-13.573-1.5291-14.978 1.0162-0.95868 11.635 7.4544 13.028 10.322 0.80353 1.654 0.91354 1.6179 1.1009-0.36212 0.25061-2.6478-3.3991-7.119-8.909-10.915-3.7146-2.5588-3.7743-2.6722-1.3337-2.5333 1.4052 0.079956 4.8839 1.2615 7.7304 2.6256 7.3727 3.5331 10.006 9.5784 9.4514 21.702z"/>
 </g>
 <path d="m-90.527 60.868c3.7235 0.51703 11.584 3.2011 10.054 8.2532-1.7845 5.8924-8.6438 0.81458-12.266-4.7116-29.041-5.0933-33.907 29.252-5.835 45.322-31.565-14.069-29.956-56.763 8.0468-48.864z" fill="#502d16"/>
 <g fill="#520">
  <path d="m-83.024 229.54c-3.8837-2.3682-6.8807-8.3259-8.1593-16.22-0.41466-2.56-1.0191-5.9307-1.3432-7.4905-0.55641-2.6775-0.42098-2.6359 2.4234 0.74445 1.8798 2.234 4.9493 4.068 8.1622 4.877 2.8322 0.7132 6.5621 2.4079 8.2887 3.766 3.2022 2.5189 6.6499 11.142 5.0817 12.71-0.47647 0.47644-4.0611-0.8092-7.966-2.8571-6.2824-3.2947-6.9068-3.4328-5.4242-1.1998 0.92149 1.3879 3.971 3.7373 6.7767 5.221l5.1012 2.6976-4.6333-0.0049c-2.5483-0.001831-6.2869-1.0127-8.3078-2.2451v5.49e-4z"/>
  <path d="m-85.862 268.73c-1.4437-9.6739-6.7126-14.968-15.078-15.149l-4.1494-0.09 5.028 2.6005c2.7654 1.4302 5.5342 3.5876 6.1527 4.7942 0.90813 1.7714-0.17775 1.478-5.64-1.5241-7.5858-4.169-8.6873-3.4553-6.3389 4.1069 1.4514 4.6737 4.554 7.1219 11.6 9.1535 2.7338 0.78821 5.9911 2.4904 7.2384 3.7826 2.6293 2.7239 2.6847 2.365 1.1864-7.6749v1.22e-4z"/>
  <path d="m175.99 137.92c2.5576 3.0381 1.9882 6.7328 0.14175 8.7542-1.4264 1.5615-3.7529 3.2448-7.7545 3.3163-9.2708 0.16571-20.005-10.783-21.06-24.119-1.8031-22.794 13.75-50.053 39.269-63.942 9.845-5.3583 8.743-2.6511-1.8497 4.5443-12.491 8.485-22.053 18.655-26.706 28.405-4.6304 9.7021-5.9884 15.934-6.0237 27.643-0.02356 7.7905 0.48975 10.58 2.7274 14.823 3.4805 6.5992 9.1863 10.562 15.206 10.562 9.391-0.20129 6.324-12.084 1.0734-8.9983-1.5295 0.89893 0.29056 0.48798 1.6809 1.7788 1.3896 1.2902-0.63913 2.7242-2.2287 2.4763-2.7938-0.43597-3.0103-3.2485-1.1461-5.3961 1.4017-1.6147 5.2436-1.5526 6.6708 0.15326z"/>
 </g>
 <g fill="#7f3f00">
  <path d="m-1.8427 62.179c-3.7946-1.6518-29.394-6.5545-30.141-5.7724-0.15259 0.15973 1.2163 0.97018 3.042 1.801 4.3142 1.9632 7.8278 7.7288 11.177 18.341 1.403 4.445 3.651 9.1328 4.9957 10.417 3.043 2.9066 11.637 5.7539 16.562 5.4871l3.7097-0.201-3.7501-8.0225c-2.0625-4.4124-5.3863-9.6078-7.3861-11.545-2.9788-2.8861-3.1961-3.4173-1.2022-2.9382 4.2116 1.0118 9.5652 7.0563 13 14.678 1.8219 4.0427 3.4888 6.933 3.704 6.4229 0.77179-1.8285-1.2056-14.815-2.8226-18.538-2.0398-4.6963-5.2335-7.6672-10.888-10.129z"/>
  <path d="m100.87 107.28c-3.8813-2.5851-7.09-7.6942-8.741-13.918-0.65176-2.457 0.090393-2.0162 4.3343 2.5743 4.944 5.3477 10.068 8.8825 11.214 7.7364 0.3046-0.3046-0.87772-1.6798-2.6273-3.056-3.3045-2.5993-9.8972-10.742-9.9549-12.294-0.058258-1.5706 11.829-0.94809 15.202 0.79611 1.7926 0.92703 4.6994 4.2622 6.4595 7.4114 4.5351 8.1144 5.886 9.6142 10.44 11.591 3.8771 1.6827 3.5246 1.7521-9.1324 1.7967-11.742 0.041351-13.6-0.24359-17.194-2.6374z"/>
 </g>
 <g fill="#520">
  <path d="m127.31 10.137c-5.0006-7.7645-12.455-11.616-35.538-18.359l-9.5241-2.7823 4.3908 3.0155c5.5861 3.8364 7.8375 8.0558 9.946 18.64 2.7093 13.6 5.1792 18.618 11.248 22.853 2.8864 2.0142 8.0232 4.3424 11.415 5.1739l6.1669 1.5118-0.2653-2.283c-0.42941-3.6915-6.338-19.257-8.6458-22.776-1.1686-1.7821-3.2837-4.2928-4.7002-5.5793l-2.5755-2.3392 3.7511 2.011c7.3588 3.9451 12.655 12.232 16.86 26.382l1.402 4.7173 0.3302-4.3713c0.69009-9.1352-1.3054-21.227-4.2602-25.815l-3e-4 1e-4z"/>
  <path d="m222.46-143.48c-1.2088 0.025162-2.4178 0.082321-3.6222 0.17433-16.588 2.5218-31.271 8.851-44.397 19.39-43.678 36.183-36.882 89.836-3.1188 128.35 3.3624 2.6078 6.5311 4.7457 7.0315 4.7457 2.1438 0 0.63748-5.1007-2.1889-7.4382-15.764-14.654-25.256-33.025-27.177-52.92 4.22-21.076 16.379-42.773 26.189-43.448 4.6319-0.31851 6.5891-0.43875 8.1937 2.3244 1.0381 1.7877 0.89935 2.7278-0.75543 4.7458-2.6906 3.2812-1.356 6.3518 2.0726 4.7651 3.3649-1.5572 3.8124-7.4775 0.8523-11.196-2.3671-2.9736-2.7643-3.1169-7.6126-2.5569-2.811 0.32471-5.0597 0.40854-4.9976 0.17432 0.062134-0.23419 2.7929-1.3878 6.0629-2.5569 10.669-3.8144 20.037-0.89532 21.036 6.5472 0.43329 3.2284-0.062012 4.7228-2.9831 9.1816-5.0602 7.7239-4 11.536 2.1889 7.9419 2.0504-1.1907 3.303-3.2094 4.2808-6.8959 1.8251-6.8804 0.44604-12.468-3.874-15.787-4.7067-3.6158-4.1806-4.2703 1.4721-1.8014 11.306 4.9379 15.206 11.446 13.152 21.985-1.962 10.069-1.8718 12.13 0.52295 12.765 7.2067 1.9116 10.193-11.29 4.9976-22.082-3.7765-7.8449-9.1346-12.08-18.46-14.586-33.49-5.0455-42.395 14.588-52.668 40.678-0.29926-13.102 3.4343-25.699 9.2396-37.249 16.195-28.197 50.004-44.658 73.84-40.949 16.445 2.5594 28.589 13.9 32.591 27.049 3.507 11.522 1.8842 19.58-12.706 24.986-9.6365 3.5701-17.456 17.125-7.0897 21.638 11.627 2.3087 19.252-4.6169 24.947-14.217 18.331-34.602-9.5494-64.534-47.021-63.755z"/>
 </g>
 <path d="m134.75-84.027c-0.51126-0.43835-2.571-2.7103-4.5771-5.0487-4.2367-4.9387-10.863-8.1194-17.49-8.3952-3.839-0.15973-26.006 5.5887-26.144 6.7798-0.031647 0.27264 1.359 0.35226 3.0904 0.17697 3.7967-0.3844 8.8577 2.4569 16.398 9.2056 7.9668 7.131 11.345 9.1997 15.949 9.7669 4.7695 0.58758 14.853-2.2098 13.746-3.8137-1.5975-2.3162-14.468-10.782-18.823-12.382-5.4226-1.9918-4.8038-2.9214 1.2906-1.9387 2.7631 0.44553 7.0396 2.5698 12.229 6.0746 4.3892 2.9642 8.2526 5.4864 8.5854 5.6049 0.71359 0.25406-2.9019-4.8714-4.2539-6.0304v3.1e-5z" fill="#7f3f00"/>
 <g fill="#502d16">
  <path d="m-57.521 91.467c3.1055-0.52319 7.2054-2.4818 10.149 2.1563 2.0805 3.2781-6.189 4.206-10.502 0.86395-24.495 3.2676-20.048 27.664 6.7466 25.336-29.32 7.6194-38.764-25.027-6.3938-28.356z"/>
  <path d="m45.597 35.677c-8.2811 0-14.998 6.7171-14.998 14.998 0 8.2811 6.7172 14.998 14.998 14.998 8.2811 0 14.998-6.7172 14.998-14.998 0-8.2811-6.7171-14.998-14.998-14.998zm0 3.4944c6.3488 0 11.504 5.155 11.504 11.504 0 6.3489-5.1549 11.504-11.504 11.504-6.3488 0-11.504-5.1549-11.504-11.504 0-6.3488 5.155-11.504 11.504-11.504z"/>
  <path d="m49.3 50.677c0 2.0475-1.6598 3.7073-3.7073 3.7073-2.0474 0-3.7072-1.6598-3.7072-3.7073 0-2.0474 1.6598-3.7072 3.7072-3.7072 2.0476 0 3.7073 1.6598 3.7073 3.7072z"/>
 </g>
 <path d="m-189.87 118.01c-0.41309 0.26721-2.4622 1.1656-4.5536 1.9967-4.4169 1.755-7.8683 6.0946-9.1093 11.453-0.71896 3.1046 0.20493 23.372 1.0897 23.904 0.20252 0.1217 0.47955-0.99524 0.6156-2.4822 0.29837-3.2607 3.2478-6.4305 9.556-10.27 6.6655-4.0568 8.7652-6.1121 9.9133-9.7034 1.1893-3.7205 0.63013-13.004-0.76239-12.656-2.011 0.50244-10.455 8.1275-12.35 11.152-2.3594 3.7655-2.9703 2.9298-1.2742-1.7428 0.76898-2.1185 3.0508-4.894 6.5251-7.9367 2.9384-2.5734 5.4587-4.8691 5.6006-5.1016 0.30441-0.49841-4.158 0.67975-5.2502 1.3861v-6.1e-5z" fill="#7f3f00"/>
 <path d="m-117.04 145.94c2.01 4.9206-0.72816 19.791-5.6775 30.835-0.40886 0.91235-0.61104 0.30481-0.47121-1.4163 0.20914-2.5747-0.51222-3.8701-4.9484-8.8865-2.8562-3.2297-7.0799-8.1133-9.3853-10.853l-4.1922-4.9806 1.4072-7.0759c0.77399-3.8917 1.7337-7.3048 2.1328-7.5844 0.39899-0.27966 2.8272 1.597 5.3961 4.1704 4.1941 4.2016 5.8352 6.6039 8.6934 12.726 0.48181 1.032 0.70006-0.2417 0.48506-2.8304-0.33055-3.9791-1.1708-5.7002-5.4354-11.133l-5.0443-6.426 5.1697 2.6025c6.4598 3.2519 10.14 6.6163 11.87 10.852v6.1e-5 -6.1e-5z" fill="#520"/>
 <path d="m179.05-32.164c3.5508-2.6858 16.226-4.1214 26.282-2.9766 0.83081 0.094543 0.38226 0.3913-1.0456 0.69171-2.1361 0.4494-3.0285 1.3022-6.1219 5.8503-1.9917 2.9283-5.0243 7.2839-6.7395 9.6789l-3.1182 4.3546-6.0541 0.6039c-3.3297 0.33215-6.3119 0.41046-6.6269 0.17395-0.31503-0.23651 0.67276-2.5208 2.195-5.0762 2.4854-4.1722 4.0735-5.9838 8.4124-9.5966 0.73142-0.60901-0.35062-0.47369-2.4045 0.3006-3.157 1.1902-4.3688 2.2338-7.8378 6.75l-4.1035 5.3421 0.9722-4.5343c1.2148-5.6658 3.1341-9.2505 6.1906-11.562z" fill="#7f3f00"/>
 <g fill="#520">
  <path d="m-183.33 22.85c-3.1256-6.4649-8.3034-10.652-24.683-19.961l-6.7584-3.8409 2.9995 2.9936c3.8162 3.8083 5.1748 7.2296 6.0023 15.114 1.0633 10.131 2.5277 14.159 6.6687 18.344 1.9696 1.9904 5.5593 4.6459 7.9768 5.9013l4.3955 2.2825-0.0403-1.6633c-0.065521-2.6896-3.33-14.838-4.7767-17.776-0.73264-1.4879-2.1065-3.6765-3.0532-4.8636l-1.7211-2.1584 2.6004 2.1585c5.1015 4.2346 8.4073 11.126 10.525 21.94l0.7059 3.6052 0.534-3.0195c1.1161-6.3103 0.47214-15.236-1.3748-19.056l-2e-4 -1e-4z"/>
  <path d="m-27.631-48.081c3.4685-1.7243 14.616-1.0654 23.115 1.3662 0.70215 0.20087 0.27045 0.38312-1.0064 0.42484-1.9101 0.062439-2.8087 0.64438-6.1645 3.9923-2.1607 2.1556-5.4348 5.3516-7.2763 7.1019l-3.3479 3.1826-5.3123-0.383c-2.9218-0.21069-5.5053-0.58258-5.7412-0.82648s0.96152-2.0084 2.661-3.9211c2.7746-3.1229 4.4182-4.4042 8.7065-6.7877 0.7229-0.40179-0.23068-0.44739-2.119-0.10141-2.9026 0.53192-4.1055 1.2265-7.7804 4.4927l-4.347 3.8635 1.5244-3.6475c1.9048-4.5577 4.1023-7.2726 7.088-8.7569z"/>
 </g>
 <path d="m-16.228 1.4196c-0.33243 0.36261-2.0892 1.7483-3.9038 3.0794-3.8324 2.8111-6.0794 7.8801-5.9305 13.379 0.086304 3.1856 6.0857 22.567 7.0759 22.859 0.22665 0.066803 0.21338-1.084-0.02951-2.5572-0.53262-3.2307 1.5232-7.0412 6.6609-12.346 5.4286-5.605 6.9429-8.1229 7.1493-11.888 0.21374-3.9002-2.6658-12.743-3.9257-12.055-1.8196 0.9928-8.0709 10.499-9.143 13.903-1.3348 4.2384-2.1365 3.5836-1.6721-1.3656 0.21054-2.2439 1.7196-5.5046 4.3154-9.3244 2.1954-3.2306 4.0561-6.0872 4.135-6.3478 0.16901-0.55899-3.8527 1.7052-4.7318 2.6639v-1e-4z" fill="#7f3f00"/>
 <path d="m-40.173-21.419c-0.44183 0.12796-2.4683 0.36706-4.5032 0.53152-4.2976 0.34738-8.8064 3.367-11.9 7.9698-1.7922 2.6666-8.8926 21.699-8.3742 22.448 0.11868 0.17126 0.77856-0.78281 1.4664-2.1202 1.5084-2.9327 5.1526-5.0145 11.807-6.7445 7.0312-1.8281 9.5476-3.1237 11.88-6.1168 2.4163-3.1008 5.557-11.858 4.2817-11.938-1.8416-0.11649-11.713 4.5009-14.437 6.753-3.3919 2.804-3.5683 1.8536-0.36792-1.9822 1.451-1.7391 4.3956-3.6488 8.4204-5.4611 3.404-1.5327 6.3579-2.9293 6.5642-3.1035 0.44244-0.37344-3.6687-0.5734-4.837-0.23529v-1e-4h6.1e-5z" fill="#520"/>
 <g transform="rotate(180 678.6 332.19)">
  <g fill="#502d16">
   <path d="m764 390.09c-8.6002 0-15.564 6.9636-15.564 15.564 0 8.6003 6.9636 15.601 15.564 15.601 8.6002 0 15.564-7.0007 15.564-15.601s-6.9636-15.564-15.564-15.564zm0 3.0015c6.9464 0 12.562 5.616 12.562 12.562 0 6.9464-5.616 12.599-12.562 12.599-6.9464 0-12.562-5.653-12.562-12.599 0-6.9464 5.6158-12.562 12.562-12.562z"/>
   <path d="m768.5 405.67c0 2.4808-2.0111 4.4919-4.4919 4.4919s-4.4919-2.0111-4.4919-4.4919 2.0111-4.492 4.4919-4.492 4.4919 2.0112 4.4919 4.492z"/>
   <path d="m547.83 359.19c-5.9017 0-10.689 4.7871-10.689 10.689 0 5.9017 4.787 10.689 10.689 10.689 5.9017 0 10.689-4.7871 10.689-10.689 0-5.9016-4.787-10.689-10.689-10.689zm0 2.4904c4.5246 0 8.1984 3.6738 8.1984 8.1983 0 4.5247-3.6738 8.1984-8.1984 8.1984-4.5247 0-8.1984-3.6738-8.1984-8.1984 0-4.5245 3.6737-8.1983 8.1984-8.1983z"/>
   <path d="m549.47 369.88c0 0.90308-0.732 1.6351-1.6351 1.6351-0.90302 0-1.6351-0.73206-1.6351-1.6351 0-0.90295 0.73206-1.635 1.6351-1.635 0.90308 0 1.6351 0.73206 1.6351 1.635z"/>
  </g>
  <g fill="#520">
   <path d="m850.12 272.06c-6.8948 0-12.487 5.5925-12.487 12.487 0 6.8947 5.5925 12.487 12.487 12.487 6.8946 0 12.487-5.5926 12.487-12.487 0-6.8947-5.5925-12.487-12.487-12.487zm0 2.9094c5.2859 0 9.5779 4.2919 9.5779 9.5778 0 5.286-4.292 9.5778-9.5779 9.5778s-9.5779-4.2918-9.5779-9.5778c0-5.2859 4.292-9.5778 9.5779-9.5778z"/>
   <path d="m852.34 284.54c0 1.2269-0.99451 2.2214-2.2214 2.2214-1.2268 0-2.2213-0.99454-2.2213-2.2214s0.99451-2.2214 2.2213-2.2214c1.2269 0 2.2214 0.99457 2.2214 2.2214z" fill="#9e1225"/>
   <path d="m595.51 132.02c-2.299-0.026978-4.52 0.52402-6.3729 1.879-6.8361 5-3.781 19.097 3.506 17.937 1.686-0.26898 3.881-2.102 4.61-4.727 1.21-4.357-1.94-6.096-4.358-3.448-2.373 2.599-4.379 1.105-4.107-3.041 0.31305-4.767 3.715-7.41 8.446-6.528 3.183 0.59399 5.614 1.564 9.956 7.574 19.228 26.617 8.232 41.517 30.373 78.838-11.96-10.086-21.87-14.704-32.891-11.158-9.733 3.133-14.971 7.671-15.593 17.744-0.66803 10.824 6.988 18.961 16.116 17.142 6.364-1.268 13.183-9.685 8.02-14.043-7.09-5.983-14.651-0.052979-12.339 6.121 1.969 5.259-5.407 3.362-7.923-3.216-6.224-16.269 15.45-29.408 33.956-16.251 25.545 21.096 38.385 36.594 56.775 48.929 15.089 10.122 43.413 23.785 59.041 31.69 15.902 7.989 33.583 12.267 54.741 13.25 3.033 0.14099 2.58 0.487-2.906 2.13-19.278 5.777-35.077 12.879-51.022 22.993-30.552 19.277-91.437 57.508-132.18 45.404-30.366-9.02-45.359-23.532-74.072-56.639-6.217-7.168-4.418-11.605-2.828-20.416 1.821-10.094 4.221-15.565 10.828-19.216 6.36-3.514 12.744-6.431 12.474-9.259-0.46503-4.873-9.271-2.727-16.29 4.01-5.645 5.418-9.864 16.844-10.712 28.997-0.41302 5.916-1.096 8.983-1.782 8.078-0.60901-0.80301-3.423-2.235-6.218-3.196-23.413-13.307-44.449 9.412-61.54 12.881-14.56 2.956-27.811 1.072-37.83-13.579-7.8754-12.043-18.84-36.383 0.85236-43.312l3.661-0.213-3.7191 1.472c-6.7415 2.664-5.6038 11.328 1.4914 11.371 5.0659 0.030029 7.8404-2.97 7.3607-8-0.52191-5.474-4.1436-8.762-9.0847-8.291-0.94666 0.091003-1.8258 0.30701-2.6731 0.62-5.931 2.193-11.509 9.126-10.344 20.726 3.8127 37.973 36.076 54.692 67.525 35.952 12.33-7.348 24.06-9.919 15.07-3.39-11.065 9.703-8.076 22.27 2.925 30.276 5.6169 2.96 10.174 3.363 14.256 1.182 9.985-5.337 8.612-19.338-2.014-20.301-5.255-0.47601-9.248 3.317-7.593 7.206 1.131 2.657 4.983 3.902 7.089 2.3049 0.94403-0.71497 0.45697-1.171-1.588-1.453-3.495-0.48096-4.182-2.921-1.395-5.075 4.506-3.481 10.399 4.239 7.7679 10.189-4.58 10.355-19.823 4.948-23.109-7.729-4.245-11.021 16.233-24.269 33.414-18.188 3.683 1.544 8.398 5.429 9.53 6.876 27.574 35.273 51.868 54.21 80.368 61.017 8.567 2.046 16.546 3.057 24.019 3.254-71.446 15.034-140.09-20.449-177.88-26.247-13.866-2.127-17.247-0.87097-22.198 0.32996-25.207 6.109-23.43-18.996-35.583-19.797-2.4155-0.15894-3.0021-0.27197-4.6102-0.23193-2.0674 0.050964-3.8594 0.99799-5.8692 2.905-3.3141 3.146-3.8133 8.086-1.1235 11.022 2.5978 2.8359 4.1787 1.07 3.9128-4.358 0.25378-14.668 14.434-5.295 19.041 3.622 6.5664 12.709 18.501 8.952 13.114 12.978-10.097 7.545-25.335 17.263-33.588 29.579-4.8308 7.208-9.0242 20.373-8.4455 26.537 0.4751 5.06 1.7606 10.885 8.3293 12.455 8.2898 1.982 17.664-8.119 12.455-13.346-1.2049-1.209-2.9763-2.865-5.5304-1.918-4.2403 1.571-4.2016 6.361-0.63892 6.77 3.4964 0.40198 2.8511 2.625-0.66852 4.833-4.0474 2.539-8.1716 1.33-10.228-3.022-1.3833-2.928-1.3473-5.239 0.30988-12.474 1.1188-4.885 3.5299-11.518 5.3268-14.741 6.1163-10.969 20.886-25.469 31.496-30.876 4.4877-2.288 18.642-7.438 19.738-7.187 0.40729 0.093018-2.2559 2.272-5.908 4.843-8.3201 5.856-15.864 17.889-18.15 28.939l-1.4915 7.206 2.305-6.179c3.9166-10.568 8.8366-18.176 14.954-23.09 11.11-8.924 19.32-10.885 41.976-6.101 29.124 6.149 114.81 45.357 193.47 12.261 32.171-11.033 53.72-35.963 77.327-43.448-32.321 25.304-46.554 71.641-78.644 99.177-8.424 7.229-18.658 10.146-24.058 10.44-5.401 0.29498-9.905-2.179-11.429-6.76-1.428-4.295 0.591-10.698 4.378-13.927 2.97-2.532 4.805-6.614 3.642-8.078-2.563-3.222-9.52 1.583-11.913 8.233-2.375 6.597-1.437 12.029 2.828 16.464 2.108 2.192 3.274 4.115 2.576 4.262-1.751 0.37-9.857-2.082-15.496-8.174-5.639-6.093-8.939-19.647-2.983-23.652 5.901-3.968 5.956-8.457 2.382-9.743-8.096-2.914-15.742 12.45-6.024 29.482s29.302 18.957 50.906 9.336c21.598-9.617 52.113-68.202 82.672-97.413 11.92-13.945 22.868-14.64 15.051-3.177-41.621 73.098-88.336 130.28-160.52 156.98-19.319 7.145-45.77 1.419-57.278-8.639-9.369-7.606-6.296-21.4 1.491-31.147-25.841 27.213 2.486 47.624 33.356 46.217 7.748-1.198 4.51-0.026978-6.431 3.352-31.683 5.99-86.753-1.876-88.968-42.363-0.242-8.257 4.582-15.72 10.867-16.795 6.313-1.079 10.026 8.453 3.99 10.247-3.486 1.037-4.812-0.29303-1.937-1.956 1.76-1.019 1.838-1.557 0.349-2.576-2.702-1.849-5.639 1.444-3.661 4.106 2.195 2.956 8.193 1.708 9.317-1.937 1.075-3.488-0.91199-7.628-3.671-8.823-16.014-6.939-25.067 15.536-14.692 35.089 10.374 19.554 45.581 31.981 73.762 29.114 133.92-13.571 191.16-141.9 221.52-181.75 25.958-16.016 55.975-22.668 81.936-18.17 12.066 2.091 12.477 2.089 11.797-0.40598-0.67004-2.456-1.53-2.767-16.62-5.54-16.9-3.106-27.867-3.878-47.07-3.351-7.212 0.19702-18.794-0.68399-29.52-2.267-16.668-2.459-18.218-2.878-27.836-7.554-16.758-8.15-25.957-18.856-24.116-28.087 1.189-5.96 4.939-8.149 11.177-6.47 5.735 1.544 7.903 0.68399 8.2319-3.293 0.271-3.272-4.792-6.594-9.878-6.489-8.1229 0.168-15.25 9.381-13.792 17.84 1.049 6.087 2.7189 9.084 8.135 14.605 5.4821 5.589 4.3511 5.456-2.5759-0.31-20.409-16.988-26.478-37.72-14.218-48.445 5.636-4.93 11.1-5.509 22.993-2.479 6.5499 1.668 9.929 1.985 12.203 1.143 4.0669-1.508 4.773-4.823 1.802-8.504-3.782-4.685-8.833-6.232-18.112-5.54-15.361 1.145-26.434 10.705-27.602 23.806-0.64703 7.246-2.052 4.914-2.577-4.261-0.64807-11.332 2.433-23.873 7.361-29.986 6.084-7.546 14.834-11.61 26.731-12.455 10.368-0.73599 17.311-3.718 18.247-7.806 0.74695-3.26-3.5179-8.874-7.399-9.763-1.281-0.293-2.7119-0.46198-4.204-0.48398-0.40393-0.006012-0.82398-0.013-1.239 0-6.239 0.20099-13.694 2.552-19.816 6.392-18.018 11.302-26.723 29.874-24.058 51.429 1.8279 14.789 7.416 27.647 18.188 40.522-15.857-5.421-46.243-25.405-64.91-44.958-19.901-20.876-22.433-36.997-32.193-70.566-3.7001-12.724-11.959-27.342-17.376-30.334-2.567-1.419-5.645-2.407-8.6-2.441z"/>
   <path d="m737.92 449.44c2.2352 5.8585-0.80981 23.564-6.3141 36.712-0.45459 1.0863-0.67944 0.36292-0.52405-1.6863 0.23267-3.0654-0.56958-4.6078-5.503-10.58-3.1764-3.8455-7.8736-9.6599-10.438-12.922l-4.6622-5.9299 1.565-8.4247c0.86078-4.6336 1.9281-8.6971 2.3718-9.0302 0.44379-0.33295 3.1442 1.9015 6.0011 4.9654 4.6644 5.0025 6.4894 7.8627 9.668 15.152 0.53589 1.2287 0.77869-0.28778 0.53943-3.3699-0.36755-4.7376-1.302-6.7867-6.0447-13.255l-5.6099-7.6508 5.7493 3.0985c7.1841 3.8718 11.277 7.8774 13.201 12.92z"/>
  </g>
  <g fill="#7f3f00">
   <path d="m561.58 527.48c-0.90692 2.3256-1.3407 7.1367-0.96393 10.691l0.6849 6.4629 1.4005-2.8244c0.77026-1.5535 2.9138-3.6501 4.7633-4.6592 4.8597-2.6514 7.299-6.4673 6.8447-10.707-0.50488-4.7114-1.6062-4.9943-4.9725-1.2772-1.4838 1.6384-3.2224 3.2436-3.8638 3.5672-1.8578 0.93732 2.2214-5.1157 4.2171-6.2576 3.4445-1.971 0.64313-3.1005-2.8978-1.1685-2.2686 1.2377-4.1628 3.4808-5.2125 6.1726z"/>
   <path d="m672.87 511.2c-0.49579 10.85-0.98389 12.655-2.2654 8.3779-0.68579-2.2889-3.025-4.4933-8.2658-7.7894-4.0201-2.5284-8.0736-5.4308-9.0076-6.4499-1.8383-2.0056-3.0191-13.573-1.5291-14.978 1.0162-0.95868 11.635 7.4544 13.028 10.322 0.80353 1.654 0.91351 1.6179 1.1009-0.36212 0.25061-2.6478-3.3992-7.119-8.9091-10.915-3.7145-2.5588-3.7742-2.6722-1.3336-2.5333 1.4052 0.079956 4.8839 1.2615 7.7304 2.6256 7.3727 3.5331 10.005 9.5784 9.4514 21.702z"/>
  </g>
  <path d="m595.47 324.87c3.7235 0.51703 11.584 3.2011 10.054 8.2532-1.7845 5.8924-8.6437 0.81458-12.266-4.7116-29.041-5.0933-33.907 29.252-5.835 45.322-31.565-14.069-29.956-56.763 8.0468-48.864z" fill="#502d16"/>
  <g fill="#520">
   <path d="m602.98 493.54c-3.8838-2.3682-6.8807-8.3259-8.1594-16.22-0.41461-2.56-1.0191-5.9307-1.3432-7.4905-0.5564-2.6775-0.42096-2.6359 2.4233 0.74445 1.8798 2.234 4.9493 4.068 8.1622 4.877 2.8322 0.7132 6.5621 2.4079 8.2888 3.766 3.2022 2.5189 6.6498 11.142 5.0817 12.71-0.47644 0.47644-4.0611-0.8092-7.9659-2.8571-6.2824-3.2947-6.9068-3.4328-5.4241-1.1998 0.92145 1.3879 3.971 3.7373 6.7766 5.221l5.1012 2.6976-4.6334-0.0049c-2.5483-0.001831-6.2869-1.0127-8.3078-2.2451v5.49e-4z"/>
   <path d="m600.14 532.73c-1.4437-9.6739-6.7126-14.968-15.078-15.149l-4.1495-0.09 5.028 2.6005c2.7654 1.4302 5.5342 3.5876 6.1527 4.7942 0.90808 1.7714-0.17773 1.478-5.6401-1.5241-7.5858-4.169-8.6873-3.4553-6.3389 4.1069 1.4514 4.6737 4.554 7.1219 11.6 9.1535 2.7338 0.78821 5.9911 2.4904 7.2384 3.7826 2.6293 2.7239 2.6848 2.365 1.1864-7.6749v1.22e-4z"/>
   <path d="m861.99 401.92c2.5576 3.0381 1.9882 6.7328 0.14172 8.7542-1.4264 1.5615-3.7528 3.2448-7.7545 3.3163-9.2708 0.16571-20.005-10.783-21.06-24.119-1.8031-22.794 13.75-50.053 39.269-63.942 9.845-5.3583 8.743-2.6511-1.8497 4.5443-12.491 8.485-22.053 18.655-26.706 28.405-4.6304 9.7021-5.9883 15.934-6.0237 27.643-0.02356 7.7905 0.48975 10.58 2.7274 14.823 3.4806 6.5992 9.1863 10.562 15.206 10.562 9.3911-0.20129 6.324-12.084 1.0735-8.9983-1.5295 0.89893 0.29053 0.48798 1.6808 1.7788 1.3896 1.2902-0.63904 2.7242-2.2286 2.4763-2.7938-0.43597-3.0102-3.2485-1.1461-5.3961 1.4017-1.6147 5.2435-1.5526 6.6708 0.15326z"/>
  </g>
  <g fill="#7f3f00">
   <path d="m684.16 326.18c-3.7946-1.6518-29.394-6.5545-30.141-5.7724-0.15259 0.15973 1.2163 0.97018 3.042 1.801 4.3141 1.9632 7.8278 7.7288 11.177 18.341 1.403 4.4451 3.6509 9.1328 4.9957 10.417 3.043 2.9067 11.637 5.754 16.562 5.4871l3.7097-0.2009-3.7501-8.0225c-2.0626-4.4124-5.3863-9.6078-7.3861-11.545-2.9788-2.8861-3.1961-3.4173-1.2022-2.9382 4.2116 1.0118 9.5651 7.0564 13 14.678 1.822 4.0427 3.4888 6.933 3.7041 6.4229 0.77173-1.8286-1.2056-14.815-2.8226-18.538-2.0398-4.6963-5.2335-7.6672-10.888-10.129z"/>
   <path d="m786.87 371.28c-3.8812-2.5851-7.09-7.6942-8.741-13.918-0.65173-2.457 0.090332-2.0162 4.3342 2.5743 4.9441 5.3477 10.068 8.8825 11.214 7.7364 0.30469-0.30456-0.87769-1.6798-2.6272-3.056-3.3046-2.5994-9.8973-10.742-9.955-12.294-0.058228-1.5707 11.83-0.94812 15.202 0.79608 1.7926 0.92706 4.6995 4.2622 6.4596 7.4114 4.535 8.1143 5.886 9.6142 10.44 11.591 3.8771 1.6827 3.5245 1.7521-9.1323 1.7967-11.742 0.041321-13.601-0.24359-17.194-2.6374z"/>
  </g>
  <g fill="#520">
   <path d="m813.31 274.14c-5.0006-7.7645-12.455-11.616-35.538-18.359l-9.524-2.7823 4.3907 3.0155c5.5861 3.8364 7.8375 8.0558 9.946 18.64 2.7092 13.6 5.1791 18.618 11.247 22.853 2.8865 2.0142 8.0232 4.3424 11.415 5.1739l6.1669 1.5118-0.2654-2.283c-0.42932-3.6915-6.338-19.257-8.6458-22.776-1.1686-1.7821-3.2837-4.2928-4.7002-5.5793l-2.5756-2.3392 3.7512 2.011c7.3588 3.9451 12.654 12.232 16.86 26.382l1.402 4.7173 0.3302-4.3713c0.69006-9.1352-1.3054-21.227-4.2601-25.815l-4e-4 1e-4z"/>
   <path d="m908.46 120.52c-1.2089 0.025177-2.418 0.082336-3.6223 0.17435-16.588 2.5218-31.271 8.851-44.397 19.39-43.679 36.183-36.883 89.836-3.1189 128.35 3.3626 2.6078 6.5312 4.7457 7.0315 4.7457 2.1438 0 0.63745-5.1007-2.1888-7.4382-15.764-14.654-25.256-33.025-27.177-52.92 4.22-21.076 16.379-42.773 26.189-43.448 4.632-0.31851 6.5891-0.43875 8.1937 2.3244 1.0381 1.7877 0.89929 2.7278-0.75549 4.7458-2.6906 3.2812-1.356 6.3518 2.0726 4.7651 3.3649-1.5572 3.8125-7.4775 0.8523-11.196-2.3671-2.9736-2.7643-3.1169-7.6126-2.5569-2.8109 0.32471-5.0597 0.40854-4.9976 0.17432 0.062134-0.23419 2.7928-1.3878 6.063-2.5569 10.669-3.8144 20.037-0.89532 21.036 6.5472 0.43335 3.2284-0.062012 4.7228-2.983 9.1816-5.0602 7.7239-4.0001 11.536 2.1888 7.9419 2.0503-1.1907 3.303-3.2094 4.2808-6.8959 1.8252-6.8804 0.44604-12.468-3.874-15.787-4.7067-3.6158-4.1805-4.2703 1.4722-1.8014 11.306 4.9379 15.206 11.446 13.153 21.985-1.962 10.069-1.8718 12.13 0.52295 12.765 7.2065 1.9116 10.193-11.29 4.9976-22.082-3.7766-7.8449-9.1346-12.08-18.46-14.586-33.49-5.0455-42.395 14.588-52.668 40.678-0.29919-13.102 3.4343-25.699 9.2398-37.249 16.195-28.197 50.004-44.658 73.84-40.949 16.445 2.5594 28.589 13.9 32.591 27.049 3.507 11.522 1.8843 19.58-12.706 24.986-9.6365 3.5701-17.456 17.125-7.0897 21.638 11.627 2.3087 19.252-4.6169 24.947-14.217 18.331-34.602-9.5494-64.534-47.021-63.755z"/>
  </g>
  <path d="m820.75 179.97c-0.51123-0.43835-2.5709-2.7103-4.577-5.0487-4.2367-4.9387-10.863-8.1194-17.49-8.3952-3.8391-0.15973-26.006 5.5887-26.144 6.7798-0.031738 0.27264 1.359 0.35226 3.0903 0.17697 3.7966-0.3844 8.8578 2.4569 16.398 9.2056 7.9668 7.131 11.345 9.1997 15.949 9.7669 4.7695 0.58758 14.853-2.2098 13.746-3.8137-1.5975-2.3162-14.468-10.782-18.823-12.382-5.4225-1.9918-4.8038-2.9214 1.2906-1.9387 2.7629 0.44553 7.0396 2.5698 12.229 6.0746 4.3892 2.9642 8.2526 5.4864 8.5854 5.6049 0.7135 0.25406-2.902-4.8714-4.2539-6.0304v-3.1e-5 3.1e-5z" fill="#7f3f00"/>
  <g fill="#502d16">
   <path d="m628.48 355.47c3.1055-0.52319 7.2054-2.4818 10.149 2.1562 2.0805 3.2782-6.189 4.206-10.502 0.86401-24.495 3.2675-20.048 27.664 6.7465 25.336-29.32 7.6194-38.764-25.027-6.3938-28.356z"/>
   <path d="m731.6 299.68c-8.2811 0-14.998 6.7171-14.998 14.998 0 8.2811 6.7172 14.998 14.998 14.998 8.2811 0 14.998-6.7172 14.998-14.998 0-8.2811-6.7172-14.998-14.998-14.998zm0 3.4944c6.3489 0 11.504 5.155 11.504 11.504 0 6.3489-5.1549 11.504-11.504 11.504-6.3488 0-11.504-5.1549-11.504-11.504 0-6.3488 5.155-11.504 11.504-11.504z"/>
   <path d="m735.3 314.68c0 2.0475-1.6598 3.7073-3.7074 3.7073-2.0474 0-3.7072-1.6598-3.7072-3.7073s1.6598-3.7072 3.7072-3.7072c2.0476 0 3.7074 1.6598 3.7074 3.7072z"/>
  </g>
  <path d="m496.13 382.01c-0.41309 0.26721-2.4622 1.1656-4.5536 1.9967-4.4169 1.755-7.8683 6.0946-9.1093 11.453-0.71893 3.1046 0.2049 23.372 1.0897 23.904 0.20252 0.1217 0.47955-0.99524 0.6156-2.4822 0.29834-3.2607 3.2478-6.4305 9.556-10.27 6.6655-4.0568 8.7652-6.1121 9.9133-9.7034 1.1893-3.7205 0.63013-13.004-0.76239-12.656-2.0109 0.50244-10.455 8.1275-12.35 11.152-2.3594 3.7655-2.9703 2.9298-1.2742-1.7428 0.76904-2.1185 3.0508-4.894 6.5251-7.9367 2.9384-2.5734 5.4587-4.8691 5.6006-5.1016 0.30438-0.49841-4.158 0.67975-5.2502 1.3861v-6.1e-5z" fill="#7f3f00"/>
  <path d="m568.96 409.94c2.01 4.9206-0.72815 19.791-5.6776 30.835-0.40881 0.91235-0.61102 0.30481-0.47119-1.4163 0.20917-2.5747-0.51221-3.8701-4.9484-8.8865-2.8561-3.2297-7.0798-8.1133-9.3852-10.853l-4.1922-4.9806 1.4072-7.0759c0.77399-3.8917 1.7337-7.3048 2.1328-7.5844 0.39899-0.27966 2.8272 1.597 5.3961 4.1704 4.1942 4.2016 5.8352 6.6039 8.6934 12.726 0.48181 1.032 0.70007-0.2417 0.48511-2.8304-0.33057-3.9791-1.1709-5.7002-5.4354-11.133l-5.0443-6.426 5.1697 2.6025c6.4598 3.2519 10.14 6.6163 11.87 10.852v6.1e-5 -6.1e-5z" fill="#520"/>
  <path d="m865.05 231.84c3.5509-2.6858 16.226-4.1214 26.282-2.9766 0.83081 0.094543 0.3822 0.3913-1.0456 0.69171-2.1361 0.4494-3.0284 1.3022-6.122 5.8503-1.9917 2.9283-5.0242 7.2839-6.7395 9.6789l-3.1182 4.3546-6.0541 0.6039c-3.3297 0.33215-6.3119 0.41046-6.627 0.17395-0.31506-0.23651 0.67273-2.5208 2.1951-5.0762 2.4855-4.1722 4.0735-5.9838 8.4124-9.5966 0.73144-0.60901-0.35059-0.47369-2.4044 0.3006-3.1571 1.1902-4.3689 2.2338-7.8379 6.75l-4.1035 5.3421 0.9722-4.5343c1.2148-5.6658 3.1342-9.2505 6.1907-11.562z" fill="#7f3f00"/>
  <g fill="#520">
   <path d="m502.67 286.85c-3.1256-6.4649-8.3033-10.652-24.683-19.961l-6.7584-3.8409 2.9995 2.9936c3.8162 3.8083 5.1747 7.2296 6.0023 15.114 1.0633 10.131 2.5276 14.159 6.6688 18.344 1.9696 1.9904 5.5592 4.6459 7.9768 5.9013l4.3955 2.2825-0.0403-1.6633c-0.065552-2.6896-3.33-14.838-4.7767-17.776-0.7326-1.4879-2.1065-3.6765-3.0531-4.8636l-1.7212-2.1584 2.6005 2.1585c5.1014 4.2346 8.4073 11.126 10.525 21.94l0.7059 3.6052 0.5341-3.0195c1.1161-6.3103 0.47217-15.236-1.3748-19.056l-2e-4 -1e-4z"/>
   <path d="m658.37 215.92c3.4684-1.7243 14.616-1.0654 23.115 1.3662 0.70215 0.20087 0.27045 0.38312-1.0064 0.42484-1.9101 0.062439-2.8087 0.64438-6.1645 3.9923-2.1606 2.1556-5.4348 5.3516-7.2764 7.1019l-3.3479 3.1826-5.3123-0.383c-2.9218-0.21069-5.5052-0.58258-5.7412-0.82648-0.2359-0.2439 0.96149-2.0084 2.661-3.9211 2.7747-3.1229 4.4182-4.4042 8.7065-6.7877 0.7229-0.40179-0.23071-0.44739-2.119-0.10141-2.9027 0.53192-4.1055 1.2265-7.7804 4.4927l-4.347 3.8635 1.5245-3.6475c1.9048-4.5577 4.1024-7.2726 7.0881-8.7569z"/>
  </g>
  <path d="m669.77 265.42c-0.33246 0.36261-2.0892 1.7483-3.9038 3.0794-3.8324 2.8111-6.0794 7.8801-5.9305 13.379 0.086304 3.1856 6.0858 22.567 7.0759 22.859 0.22668 0.066803 0.21338-1.084-0.029541-2.5572-0.53259-3.2307 1.5233-7.0412 6.661-12.346 5.4286-5.605 6.9429-8.1229 7.1493-11.888 0.21374-3.9002-2.6658-12.743-3.9257-12.055-1.8196 0.9928-8.0709 10.499-9.1429 13.903-1.3348 4.2384-2.1365 3.5836-1.6721-1.3656 0.21051-2.2439 1.7196-5.5046 4.3154-9.3244 2.1954-3.2306 4.0561-6.0872 4.135-6.3478 0.16901-0.55899-3.8527 1.7052-4.7318 2.6639v-6.1e-5z" fill="#7f3f00"/>
  <path d="m645.83 242.58c-0.4419 0.12796-2.4683 0.36706-4.5032 0.53152-4.2976 0.34738-8.8064 3.367-11.9 7.9698-1.7922 2.6666-8.8926 21.699-8.3742 22.448 0.11865 0.17126 0.77856-0.78281 1.4664-2.1202 1.5084-2.9327 5.1526-5.0145 11.807-6.7445 7.0312-1.8281 9.5477-3.1237 11.88-6.1168 2.4163-3.1008 5.557-11.858 4.2817-11.938-1.8417-0.11649-11.713 4.5009-14.437 6.753-3.392 2.804-3.5684 1.8536-0.36792-1.9822 1.451-1.7391 4.3956-3.6488 8.4204-5.4611 3.4039-1.5328 6.3579-2.9293 6.5642-3.1034 0.44244-0.37344-3.6687-0.5734-4.837-0.23529v-6.1e-5h1.22e-4z" fill="#520"/>
 </g>
</svg>
