<?xml version='1.0' encoding='utf-8'?>
<svg xmlns="http://www.w3.org/2000/svg" width="13in" height="18in" version="1.1" style="shape-rendering:geometricPrecision; text-rendering:geometricPrecision; image-rendering:optimizeQuality; fill-rule:evenodd; clip-rule:evenodd" viewBox="0 0 13000 18000"> <defs> <style type="text/css">  .fil0 {fill:#FEFEFE} .fil1 {fill:#282829}  </style> </defs> <g id="Layer_x0020_1"> <metadata id="CorelCorpID_0Corel-Layer"/> <path class="fil0" d="M9072 16554c120,84 55,2 132,105 72,-41 17,16 99,-70 238,-250 348,-668 405,-793 64,-140 190,-326 227,-438 50,-149 -74,-428 -97,-586 -26,-183 -33,-486 78,-597 178,-178 1042,-95 1401,-642 190,-290 377,-519 302,-1004 -50,-323 -417,-638 -840,-486 -274,98 -569,413 -631,732 -30,156 11,439 74,562 88,170 188,329 369,203 -40,-223 -311,-338 -235,-729 107,-551 823,-844 1019,-202 129,423 -324,1072 -763,1171 -1053,240 -923,-20 -1104,-221 -102,-113 -127,-161 -216,-277 -189,-246 -415,-396 -421,-552 215,-226 1193,-330 1248,-361 186,-103 126,-167 127,-370 157,-115 485,-270 604,-378 260,-237 500,-669 1096,-948 183,-86 706,-221 545,-406 -49,-56 89,-67 -173,-32 -1,0 -252,66 -154,-115l1040 -1219c59,-67 105,-148 163,-224 101,-132 92,-90 165,-246l-153 -215c-237,8 -237,165 -348,301 -86,105 -61,92 -126,192 -58,90 -87,83 -160,190 -275,398 -1643,1967 -1792,2050 -139,78 -138,-2 -138,-3 -78,-277 64,-553 -117,-831 -96,-148 -316,-450 -509,-392 -72,170 9,126 133,239 70,64 131,172 165,294 298,1047 -403,1667 -889,1661 -117,-154 -66,-347 -211,-419 -262,341 305,773 -1211,1041 -260,46 -449,65 -443,331 61,25 156,51 200,78 69,42 82,85 185,146 0,0 469,-228 684,219 137,284 -139,566 -157,793 279,41 156,-30 413,-282 222,35 339,329 403,528 121,374 79,1302 -30,1593 -103,274 -286,408 -360,608z"/> <path class="fil0" d="M10902 6564c-114,-2 -335,-180 -657,118 -114,106 -311,365 -329,622 -12,170 165,529 244,676 143,265 457,147 624,20 -28,-347 51,-236 -82,-568 -31,-78 -121,-460 40,-563 70,160 -21,129 124,294 858,6 604,-854 991,-1019 -6,154 -58,195 -61,339 226,-27 490,10 692,-27 225,-41 573,-88 704,71 -65,185 -154,61 -585,229 -194,75 -435,179 -440,405 158,52 232,1 388,7 -75,294 -417,179 -669,192 -294,15 -559,481 -281,554 271,71 118,-61 227,92 -19,38 33,118 -334,128 -161,4 -194,-54 -382,-44 -114,92 -189,188 -172,406 206,204 593,148 838,40 487,-213 269,-237 415,-670 190,-232 437,-24 548,-342 52,-148 33,-216 153,-304 70,-51 265,-120 328,-147 139,159 54,224 88,476 27,199 108,667 622,945 80,43 156,62 239,115 102,64 142,92 281,94 35,-44 62,-69 95,-133 -93,-89 -31,-4 -304,-139 -259,-128 -637,-468 -671,-810 -35,-350 44,-584 276,-716 384,-218 567,-95 711,-280 -233,-163 -644,-23 -876,83 -266,122 -85,285 -421,339 32,-85 87,-195 132,-243 82,-86 68,-14 192,-137 -23,-212 -234,-448 -398,-528 -385,-187 -537,24 -812,-6 -3,-1 -559,-657 -1205,70 -131,147 -144,272 -275,359z"/> <path class="fil0" d="M2969 9422c-127,-297 19,-249 -136,-315 -220,308 366,457 -133,744l-298 194c-296,161 -442,62 -448,498 291,-25 417,-220 676,-211 22,37 51,85 68,137 53,153 -31,87 100,160 68,-83 24,34 48,-86 42,-209 -39,-301 304,-600 256,-223 379,-433 583,-500 -122,1029 -437,1386 -449,1559 333,230 348,-273 511,-652 211,-491 76,-538 192,-865 104,34 104,20 132,153 55,256 -22,330 181,781 136,302 182,712 471,808 181,-77 218,-161 119,-341l-283 -835c-20,-198 55,-350 35,-505l-186 -89c-35,-177 -40,-328 -19,-506 37,-317 27,-221 123,-470 363,13 -52,170 564,797 83,85 -5,28 106,82l118 -109c-134,-243 -322,-368 -377,-724 -23,-150 -67,-357 -140,-433l-305 -282c-198,71 -91,94 -195,213 -76,88 -107,47 -190,196 -138,250 -460,788 -653,971 -181,172 -233,289 -518,230z"/> <path class="fil0" d="M2863 12729c4,255 -178,452 -99,950 67,424 291,356 460,630 488,790 1542,323 1542,323l220 -632c63,-213 148,-505 92,-771l-126 -75c-236,261 22,148 -220,837 -19,54 -148,331 -173,358 -94,97 -520,254 -519,-140 0,-162 84,-154 -44,-239 -139,81 -89,303 -168,487l-168 -17c-356,-545 -149,-669 -173,-988l-157 -48c-210,257 5,514 -381,477 -65,-140 -89,-468 -16,-665 162,-439 346,-2 429,34 218,29 541,-62 547,-280 10,-349 -254,-264 -509,-354 17,-251 169,-251 73,-456 -153,-327 -393,69 -620,91 -53,-225 -190,-562 -464,-427 -75,37 -81,123 -83,235 -5,187 53,215 120,307 187,253 274,188 437,363z"/> <path class="fil0" d="M1424 11322c-480,356 -591,871 -66,1049 95,32 135,36 174,107 59,105 -1,128 68,255 119,-53 40,20 112,-103 175,-296 194,-138 416,-288l5 -199c-355,21 -511,118 -778,-113 -43,-274 53,-288 211,-392 590,-389 1790,-330 2443,163 161,121 465,489 515,716l384 73c-47,-681 -1030,-1195 -1608,-1390 -165,-55 -75,-66 -253,-75 -129,-6 -259,-11 -390,-8 -127,3 -263,-2 -389,9 -57,5 -810,243 -651,-318 71,-250 253,-258 189,-581 -76,-83 -125,-121 -238,-64 -125,63 -91,138 -145,275l-106 1 -39 -245c-461,-202 -550,253 -273,593 152,187 398,232 418,534z"/> <path class="fil0" d="M8845 9277c-111,146 -250,222 -223,493 126,97 316,565 967,304 371,-148 378,-382 193,-731 -70,-133 -98,-112 -206,-180 -15,-239 60,-382 7,-614 -226,-101 -577,-48 -725,93 -332,317 -45,269 -14,635z"/> <path class="fil0" d="M14268 9329c-73,-337 9,-452 -406,-432 -283,105 -199,618 7,758 221,151 284,-147 337,434 20,213 43,214 149,241 101,-148 3,-229 199,-394 285,-49 436,172 844,-35 102,-474 -337,-230 -505,-312 8,-133 80,-234 123,-387 53,-186 46,-211 -5,-441 -78,-46 -135,-107 -253,-68 -335,112 -261,626 -490,636z"/> <path class="fil0" d="M14371 6897c-66,197 -8,100 -136,215l-183 205c-110,116 -350,265 -242,480 11,12 20,154 205,-24 22,-21 95,-124 123,-158 154,-185 384,-411 600,-531 255,-141 285,-423 1060,-629 298,-79 933,21 825,-284 -101,-120 -664,65 -928,-64l-38 -237c-361,-17 94,334 -910,803 -118,55 -96,12 -175,106 -103,122 -8,94 -200,120z"/> <path class="fil0" d="M11837 13011c-20,220 11,176 79,329 52,117 51,202 185,261 125,-101 537,-967 573,-1075 79,-238 438,-976 343,-1240 -563,-98 -499,667 -844,1338 -118,229 -198,231 -335,388z"/> <path class="fil0" d="M-870 6176c61,325 412,62 630,111 252,57 259,301 365,511 220,-42 98,-308 454,-281 243,18 550,209 640,437l148 333c24,83 65,246 75,308 27,173 -26,238 57,349l78 10c107,-270 2,-787 -112,-1008 -265,-515 -855,-676 -932,-798 -101,-160 -41,-126 -436,-170 -275,-31 -290,50 -473,89 -201,42 -358,-45 -495,109z"/> <path class="fil0" d="M13289 10228l13 180c297,-3 552,52 695,216 382,438 162,995 -205,1192 -551,296 -580,35 -713,245 83,187 110,32 292,142 142,86 82,147 175,265 114,-79 -39,128 43,-47 0,-1 32,-102 34,-106 115,-338 232,-322 365,-446 133,-124 357,-436 401,-653 112,-556 -191,-850 -616,-975 -89,-26 -176,-94 -369,-57 -125,24 -81,26 -114,46z"/> <path class="fil0" d="M15224 8805c-1,2 -58,-17 -18,108 10,31 42,64 71,80 193,112 1054,-25 1261,-73 235,-55 282,75 377,156l65 -47c23,-488 49,-304 282,-580 61,-73 284,-382 282,-531 -316,-85 -241,266 -380,389 -829,732 -1576,350 -1940,498z"/> <path class="fil0" d="M15019 6915l220 139c122,90 131,21 237,114 91,80 71,92 193,157 272,146 443,366 425,719 -24,474 -176,313 -197,561 279,9 375,-89 427,-350 78,-388 288,-82 322,-469l-213 12c-104,-97 -145,-136 -222,-276 -66,-120 -101,-242 -220,-304 -51,-27 -558,-391 -686,-389 -112,43 -144,86 -288,86z"/> <path class="fil0" d="M-4677 6141c111,131 434,113 603,180 247,97 258,170 601,208l-13 -180c201,21 191,89 269,245 282,563 675,-299 5,-535 -353,-124 -578,97 -578,97 -226,-7 -237,-108 -437,-137 -155,-23 -219,34 -316,70l-133 54z"/> <path class="fil0" d="M10925 10313c239,67 329,-360 556,-775 66,-121 133,-160 152,-326 -613,21 -18,145 -735,-389 -146,-109 -568,-392 -804,-387 -6,251 219,247 419,349 1087,554 404,1242 412,1528z"/> <path class="fil0" d="M12665 10686l431 16c102,-240 90,-1021 -80,-1255 -371,48 -439,835 -351,1239z"/> <path class="fil0" d="M4490 11418c-191,-159 -38,-689 -265,-436 -266,296 184,888 727,625 136,-66 147,-127 228,-231 104,-135 82,-75 178,-280 199,-428 52,-252 49,-584 -2,-207 36,-97 -36,-227 -164,144 -127,1232 -881,1134z"/> <path class="fil0" d="M6272 16157c161,-84 50,54 124,-322 23,-115 80,-198 118,-316 129,-401 301,-724 636,-1012 157,-134 396,-271 450,-366 -378,12 -782,354 -1007,689 -280,416 -369,735 -321,1326z"/> <path class="fil0" d="M10901 7980c346,-72 101,-178 737,-752 104,-94 138,-62 230,-121 90,-57 57,-111 186,-202 88,-62 115,-76 219,-131 94,-50 191,-88 263,-140 -24,-18 95,-121 -277,18 -589,220 -734,415 -1092,809 -124,137 -267,294 -266,518z"/> <path class="fil0" d="M467 8609c141,-13 154,-56 253,-136 22,-364 4,-467 140,-782 156,-361 342,-309 321,-599 -346,-80 -767,1033 -714,1517z"/> <path class="fil0" d="M12502 8730c232,15 277,-92 357,-264 -17,-164 -125,-425 -207,-512l-204 -15c-202,248 -256,386 54,791z"/> <path class="fil0" d="M3350 7139c175,71 354,-108 646,-142l95 91c144,-147 87,-118 290,-144 131,-17 242,-66 389,-78 272,-22 600,82 839,12 -381,-311 -1605,-167 -2259,260z"/> <path class="fil0" d="M7077 9277l70 210c-141,157 -169,93 -137,256 108,65 94,44 192,29 82,-167 60,-194 164,-299 -177,-30 -42,-6 -105,-56 39,-109 23,-136 118,-169 57,96 23,119 9,155 177,-131 146,41 374,-161 2,-112 -25,-149 -53,-226l-251 82c-56,48 -11,15 -79,54 -139,-197 74,-168 -141,-261 -213,164 47,-15 -161,384z"/> <path class="fil0" d="M6659 16600l50 -257c67,51 28,3 57,109 24,88 23,130 92,188 6,5 13,13 19,17l49 20c94,34 -37,8 65,-2l52 -140c-166,29 -79,50 -203,-1 65,-111 81,-282 81,-458 11,-2 39,-12 42,-14 119,-55 114,31 78,-94 -231,37 -187,-63 -296,-43 -209,106 -286,284 -259,574 92,65 80,65 173,101z"/> <path class="fil0" d="M10057 9383c114,-175 -18,-320 156,-441 136,-95 45,79 107,-138 -185,39 -84,59 -227,98 -166,-142 -158,-394 -336,-438 -29,98 -42,485 3,582 5,12 277,321 298,338z"/> <path class="fil0" d="M9189 8310l344 51c249,-266 81,-569 30,-594 -246,-14 -383,302 -374,543z"/> <path class="fil0" d="M-2892 8114c203,89 109,68 300,265 162,-142 -145,-339 -233,-870 -2,-14 -11,-89 -12,-92 -3,-11 -6,-22 -9,-32l-28 -63c-290,137 -47,508 -18,792z"/> <path class="fil0" d="M5245 9594c-20,235 67,366 301,353 115,-94 221,-200 163,-415 -12,-16 -238,-221 -464,62z"/> <path class="fil0" d="M5834 7304c98,125 106,96 307,66 149,-22 302,4 429,-66 7,-193 -158,-224 -355,-240 -230,-19 -356,48 -381,240z"/> <path class="fil0" d="M6729 7444c106,70 225,159 368,160 460,-487 -368,-734 -368,-160z"/> <path class="fil0" d="M9131 10357c23,171 117,321 186,396 311,16 293,-108 292,-395 -369,-80 -315,-54 -478,-1z"/> <path class="fil0" d="M5419 8700c105,4 154,-58 335,-233 0,-94 -11,-149 -22,-247 -31,-293 -34,-189 -115,-226 -145,112 -241,540 -198,707z"/> <path class="fil0" d="M9845 11062c108,-70 63,-172 255,-227 196,-57 310,23 270,-220l-349 19c-107,-74 -60,-100 -212,-78 -56,127 -43,417 35,506z"/> <path class="fil0" d="M7363 11750c128,-187 20,-369 -55,-533 -214,-10 -295,63 -246,310 31,157 125,286 301,223z"/> <path class="fil0" d="M17485 6834c40,39 -128,162 343,-37 79,-33 366,-232 599,-320 170,-64 256,-78 321,-215 -595,98 -927,457 -1262,571z"/> <path class="fil0" d="M5217 14893c156,13 60,29 149,-124 58,-100 166,-250 265,-299 169,-84 120,29 134,-156 -266,-107 -644,231 -547,579z"/> <path class="fil0" d="M7829 6994c114,31 306,128 394,121 96,-8 284,-127 334,-186 -118,-55 -520,-58 -602,-36 -107,30 -93,55 -126,101z"/> <path class="fil0" d="M6135 11214l-77 -322c-32,-16 -24,-24 -74,-43l-308 -38c51,175 271,472 459,403z"/> <path class="fil0" d="M4869 10373c11,6 -40,69 131,19 151,-44 40,-21 123,-96 145,-133 196,-13 203,-208 -239,-132 -532,121 -458,285z"/> <path class="fil0" d="M16260 7268c121,83 183,51 331,12 204,-54 149,-4 324,-16l89 -130c-143,-47 -438,-4 -603,32 -149,32 -108,9 -141,103z"/> <path class="fil0" d="M7415 9488c65,204 -79,-31 264,188l40 204 204 -52 7 -149c-60,-35 -109,-48 -204,-53 -1,-7 -6,-99 -7,-102 -15,-87 -9,-45 -24,-83 -135,6 -181,-17 -281,48z"/> <path class="fil0" d="M6975 8724c-50,435 -160,130 -168,444l184 13c94,-130 39,-141 22,-291 67,-41 187,-92 178,-176 -6,-52 -20,-74 -90,-71 -91,4 -45,14 -93,49l-34 32z"/> <path class="fil0" d="M9211 14153c-302,-50 -300,66 -202,248l272 31c49,-121 26,-181 -70,-279z"/> <path class="fil0" d="M9079 15362c255,171 278,-62 312,-272 -227,-18 -376,58 -312,272z"/> <path class="fil0" d="M-4238 6528c148,106 721,313 949,324l-29 -125c-241,-17 -303,-17 -509,-93 -140,-51 -297,-179 -411,-107z"/> <path class="fil0" d="M9282 14695c-70,-61 -90,-102 -231,-81 -27,352 -47,382 207,309l25 -228z"/> <path class="fil0" d="M8202 9332c64,52 14,95 173,24 119,-54 64,-201 40,-305 -158,5 -237,103 -222,257 1,6 6,16 8,25z"/> <path class="fil0" d="M2732 11739c156,39 389,47 403,-137 -172,-113 -360,-74 -403,137z"/> <path class="fil0" d="M7305 9946c164,15 152,17 259,-63 32,-111 17,-96 -18,-208 -185,9 -261,99 -241,271z"/> <path class="fil0" d="M8015 8819c77,182 250,155 340,35l-157 -160c-124,38 -146,35 -183,125z"/> <path class="fil0" d="M6704 9541c221,-48 392,34 275,-247l-128 -15c-97,88 -107,162 -147,262z"/> <path class="fil0" d="M3146 8387c7,114 36,198 111,297 218,-113 87,-470 -111,-297z"/> <path class="fil0" d="M8080 9698c73,53 -84,36 76,39 85,1 75,-20 108,-37l26 -188 -188 -9c-46,88 -64,95 -22,195z"/> <path class="fil0" d="M7766 8696c127,-48 135,-63 145,-231l-230 8c-27,159 -20,153 85,222z"/> <path class="fil0" d="M7832 9168c160,29 130,86 266,19l23 -149c-116,-47 -259,-14 -289,130z"/> <path class="fil0" d="M9312 15556c-253,59 -149,52 -396,-20 28,131 69,167 226,164 141,-2 157,-24 170,-144z"/> <path class="fil0" d="M7477 8666c33,-73 30,-118 -1,-192l-146 -19c-74,156 -42,241 147,211z"/> <path class="fil0" d="M10633 12682c65,37 93,43 174,23 40,-119 58,-74 -11,-189 -134,1 -161,29 -163,166z"/> <path class="fil0" d="M7853 10052c115,81 256,-4 333,-70 -82,-49 -257,-60 -333,70z"/> <path class="fil0" d="M6814 10012l211 -23c-28,-101 -39,-130 -140,-173 -77,73 -76,56 -71,196z"/> <path class="fil0" d="M7482 8814c-62,101 -41,45 -36,188 106,-53 163,-41 181,-184 -105,-55 -51,-51 -146,-4z"/> <path class="fil0" d="M6344 14692c61,-73 66,-293 73,-412 -58,57 -26,-22 -71,72 -21,44 -17,34 -25,99 -10,82 4,171 24,241z"/> <path class="fil0" d="M8547 9345c150,-23 102,-4 166,-104 -33,-79 -37,-91 -101,-105 -86,90 -70,54 -65,209z"/> <path class="fil0" d="M7815 9445c109,53 209,17 214,-120 -146,-52 -182,11 -214,120z"/> <path class="fil0" d="M6746 8959c38,-65 63,-110 69,-212l-162 7c-19,135 16,143 93,205z"/> <path class="fil0" d="M5636 10497c23,-111 35,-319 40,-396 -71,50 -74,34 -85,160 -3,32 -4,114 1,144 28,169 -11,37 44,92z"/> <path class="fil0" d="M10529 8422c109,79 151,48 211,23l-4 -93c-110,-23 -207,-23 -207,70z"/> <path class="fil0" d="M7999 8446l97 0c22,-133 11,-143 -83,-204 -70,99 -65,91 -14,204z"/> <path class="fil0" d="M5571 9216l0 -241c-193,52 -135,-124 -207,90l152 -36c5,72 -13,170 54,187z"/> <path class="fil0" d="M15133 9384l177 7 -20 -121c-13,2 2,-73 -101,-9 -46,29 -49,57 -56,122z"/> <path class="fil0" d="M-1201 7990c-108,-25 -213,-35 -294,-38 42,58 6,72 137,81 108,8 113,8 157,-43z"/> <path class="fil0" d="M5886 8055c21,-109 31,-209 29,-288 -49,37 -72,35 -78,138 -5,94 3,115 49,150z"/> <path class="fil0" d="M7244 15125c197,0 28,15 100,-70 0,-276 13,-42 -67,-141l-33 211z"/> <path class="fil0" d="M7827 8974l104 -3c-22,-121 -38,-115 -132,-149 -21,104 27,151 27,152z"/> <path class="fil0" d="M5053 7381l-127 10 11 -157c-30,44 -29,27 -56,110 -7,21 -4,89 -4,101 295,0 99,1 176,-64z"/> <path class="fil0" d="M1683 6985l28 -139 -40 -1c0,-217 12,-16 -68,-106 5,65 2,99 23,159 47,136 22,42 57,86z"/> <path class="fil0" d="M-972 8235c17,-27 81,41 33,-83 -35,-90 13,-13 -68,-56 -2,3 -170,41 35,139z"/> <path class="fil0" d="M4731 6414l11 -119 134 8c-11,-7 -23,-33 -32,-23l-179 -34c0,324 -7,77 65,167z"/> <path class="fil0" d="M3630 12412c6,3 32,149 136,-35 -35,-23 58,-89 -81,-33 -143,58 7,3 -55,69z"/> <path class="fil0" d="M-307 8079c116,52 144,29 119,-77 -93,-34 -107,-57 -119,77z"/> <path class="fil0" d="M8036 16166c4,-9 14,-10 22,-14 38,-146 20,-25 -14,-76 -103,-36 -85,-3 -92,96 80,9 -45,12 59,3 5,0 21,0 24,-9z"/> <path class="fil0" d="M6680 11849c126,86 82,54 138,-35 -155,-94 -83,-26 -138,35z"/> <path class="fil0" d="M7493 10271c-14,-146 14,-87 -78,-139 -66,121 -39,105 78,139z"/> <path class="fil0" d="M4718 7645l18 -165c-30,-25 -102,-31 -113,-35l95 200z"/> <path class="fil0" d="M273 8995c70,0 59,21 59,-35 75,0 7,9 23,-64 -88,15 -64,4 -82,99z"/> <polygon class="fil0" points="6956,15749 6956,15651 6862,15673 "/> <path class="fil0" d="M8682 7092l71 -22c19,-123 12,-44 -34,-77l-37 98z"/> <polygon class="fil0" points="8095,14295 8189,14317 8169,14219 "/> <polygon class="fil0" points="-846,6516 -936,6438 -936,6528 "/> <path class="fil0" d="M195 8066c191,11 68,45 95,-52l-95 52z"/> <path class="fil0" d="M2919 12013c105,-22 62,18 80,-87l-80 87z"/> <path class="fil0" d="M14122 11919c-6,77 5,-61 0,0z"/> <path class="fil0" d="M6344 14692c-19,-71 -34,-159 -24,-241 8,-65 4,-54 25,-99 45,-94 14,-15 71,-72 13,-43 31,-101 47,-138 62,-138 15,-71 105,-115 115,115 36,106 106,257 393,-6 1173,-655 1495,-64l20 98 -94 -22c-299,-72 -360,-39 -586,113 -140,94 -303,227 -334,438l102 67c80,99 67,-135 67,141 -71,85 97,70 -100,70 -123,9 -414,190 -452,362 -54,243 62,183 70,186l94 -22 0 98c30,98 48,60 85,219 36,126 41,39 -78,94 -4,2 -31,12 -42,14 0,176 -15,347 -81,458 124,51 37,30 203,1l-52 140c-102,10 29,36 -65,2l-49 -20c-6,-4 -13,-12 -19,-17 -69,-58 -67,-101 -92,-188 -29,-106 10,-58 -57,-109l-50 257c32,73 -29,20 69,87 431,294 947,-278 765,-723 -80,-194 -200,-154 -237,-396 638,-233 266,-304 331,-795 142,-162 461,-324 751,-185 165,79 361,397 302,688l-352 19c-158,192 -129,270 34,463 594,1 628,-910 493,-1256 -106,-269 -209,-139 -315,-321 -112,-193 48,-319 -776,-495 -514,-110 -630,144 -1017,63 -335,-70 -653,176 -721,480 -44,199 -26,381 -166,467 -125,77 -411,25 -538,724 -35,191 -8,416 18,589 64,423 331,509 749,434 75,-275 33,-403 -44,-650 -84,-269 -166,-227 -449,-290 -19,-325 297,-147 515,-276 159,-94 279,-313 271,-535z"/> <path class="fil0" d="M4623 7445c10,4 83,10 113,35l-18 165c51,400 469,414 707,243 114,-82 144,-235 229,-369 106,-167 65,-276 2,-461 -286,-65 -591,302 -603,323 -77,64 119,64 -176,64 0,-11 -3,-79 4,-101 27,-83 26,-67 56,-110 -4,-61 -29,-82 -64,-134 -602,-124 -606,309 -979,310l14 -155c-515,-119 -1091,498 -1267,491 -36,-188 80,-217 188,-306 100,-82 180,-189 271,-258l433 -342c185,-97 118,9 145,-134 -15,-4 -65,-11 -75,-14l-80 -37c-6,-4 -16,-13 -24,-19 40,-83 -56,-45 84,-88 350,-107 874,212 1172,-53l-23 -79c-73,-90 -65,157 -65,-167l179 34c9,-11 21,15 32,23 470,121 572,430 811,376 275,-62 405,-680 -389,-783 -393,-51 -562,-2 -794,188 -392,321 -348,-186 -1144,192 -76,36 -193,226 -236,293 -241,374 -12,278 -425,566 -348,242 -614,1075 -412,1456 334,629 894,286 720,16 -108,-102 -219,-95 -344,-209 -7,-324 99,-322 273,-498 672,-680 773,-73 1095,-89 265,-13 373,-179 467,-357l125 -10z"/> <path class="fil0" d="M17843 6121c-160,-53 -740,-740 -1126,337 -103,288 479,786 623,298 56,-189 -53,-209 -72,-417 442,40 -21,503 827,17 274,-157 170,-292 347,-371l60 121c324,16 477,-124 718,-105 -27,122 -186,239 -276,290 -279,159 -143,106 -156,367 -331,9 -293,-3 -573,104 -248,95 -338,63 -414,295 58,104 84,100 85,250 -267,-49 -152,-350 -643,-200 -314,747 917,797 1030,137l14 -220c88,-363 385,179 715,-423 77,-140 76,-254 201,-366 145,-129 197,-98 202,-385 -275,-23 -315,94 -547,76l-95 -134c-183,-19 -407,-95 -582,-14 -188,87 -124,243 -339,343z"/> <path class="fil0" d="M8753 7070l-71 22c-148,38 -413,249 -475,262 -218,45 -220,-280 -531,-210 -547,123 -374,982 -157,1075 323,29 339,-137 564,-165 160,167 115,331 352,411 194,-68 82,-67 352,-106 168,-148 364,-340 379,-667 15,-321 -122,-616 -415,-622z"/> <path class="fil0" d="M6093 6458c397,340 1231,-276 2096,-269 578,5 275,74 528,82 605,18 -41,330 101,543 176,264 270,-422 851,-421 241,1 410,100 612,44 130,-35 464,-84 535,-155 -77,-80 -901,-286 -1088,-334 -141,-36 -492,-92 -621,-86 -109,5 -196,45 -319,44 -118,-1 -212,-38 -350,-42 -436,-12 -920,10 -1306,133 -262,84 -732,247 -971,406 -48,32 -35,26 -67,56z"/> <path class="fil0" d="M5914 7767c2,78 -7,179 -29,288 -34,272 44,321 4,552 -151,131 -268,192 -319,368l0 241c67,187 350,284 467,275 191,-16 370,-96 523,-182l48 -33c-27,-126 -24,-169 -76,-282 -132,-284 -82,-278 31,-432 320,-41 365,35 461,-272 165,-529 -525,-767 -632,-780 -231,-29 -467,78 -479,256z"/> <path class="fil0" d="M8013 10344c-108,-65 -72,-68 -176,-129 -633,464 -371,1326 -35,1400 165,-1 231,-65 338,-132 158,-98 131,-140 231,-218 296,5 500,210 743,-156 24,-242 -67,-611 -196,-728 -161,-145 -308,-308 -660,-251 -67,81 -99,175 -244,213z"/> <path class="fil0" d="M5676 10101c-5,77 -17,285 -40,396 38,218 320,119 510,155 93,139 125,910 633,665 344,-165 719,-681 459,-1161 -269,-46 -300,79 -553,21 -79,-183 -17,-220 -43,-408 -342,-298 -906,61 -967,332z"/> <path class="fil0" d="M-1495 7952c81,3 186,13 294,38 98,-21 7,13 85,-23 137,-63 58,-83 247,-91 99,177 41,300 326,268 33,-46 67,-96 79,-147 9,-36 9,-83 12,-95 97,-374 495,146 620,50 7,-6 102,-5 23,-256 -73,-233 -428,-401 -494,-462 -149,-138 -132,-294 -218,-416 -63,-89 -238,-272 -324,-301l-91 12 0 -91c-86,-145 -96,-83 -299,-211 -112,-71 -261,-154 -370,-209 -257,36 -518,99 -733,200 -251,118 -376,239 -409,563l174 -128c430,-449 1032,-540 1524,-116 185,160 481,592 124,813 -313,194 -576,252 -598,499 -16,182 10,89 29,104z"/> <path class="fil0" d="M6625 12103c-403,-395 -582,263 -240,740 93,130 215,189 267,330 73,203 -86,415 218,354 130,-131 16,-165 123,-340 74,-121 162,-119 298,-194 331,-184 481,-707 229,-720 -219,74 -82,211 -354,178l41 -471c-135,-106 -26,-110 -215,-146 -229,194 -126,734 -322,550 -57,-54 -35,-195 -45,-281z"/> <path class="fil0" d="M1602 6740c80,89 68,-111 68,106l40 1 -28 139c0,38 63,369 90,425 74,155 243,139 363,109 53,-136 -4,-194 112,-273 92,-63 181,-77 278,-143 1,-168 -39,-130 3,-292 130,-88 308,-82 402,-223 105,-159 103,-356 16,-513 -329,-13 -454,195 -604,351 -166,173 -491,197 -738,251l-2 64z"/> <path class="fil0" d="M938 8130c244,144 386,52 598,546 203,472 -139,933 -567,599 -114,-89 -164,-191 -257,-71 -26,61 -41,-73 -16,65 24,137 244,334 482,338 155,3 268,-50 398,-70 139,-22 280,-5 441,-27 27,-249 -131,-158 -148,-479 -11,-212 -20,-369 -102,-553 -114,-256 -449,-569 -805,-548l-22 200z"/> <path class="fil0" d="M-5028 6098c4,190 218,319 349,394 23,241 -16,262 196,336 142,49 343,49 456,115 138,181 101,509 419,562 303,50 550,-119 511,-438 -319,-65 -122,109 -531,118l27 -183c-181,-186 -496,-223 -784,-273 -75,-83 -127,-157 -231,-255 -85,-80 -190,-165 -249,-262l96 -104c-93,-24 -191,-64 -258,-9z"/> <path class="fil0" d="M4994 11782c-44,444 -88,164 -86,350 1,136 103,158 216,70 167,-130 108,-221 559,75 125,83 164,197 370,210 -47,-643 -172,-357 -613,-884 -50,-60 -61,-90 -104,-139 -134,48 -76,60 -158,156 -54,63 -125,111 -184,162z"/> <path class="fil0" d="M11933 11567c82,128 167,276 343,267 74,-220 -345,-268 116,-608 46,-34 -20,3 60,-44 329,-193 1369,-54 1536,-319 -97,-123 -26,-52 -551,-9 -211,17 -491,25 -693,54 -294,43 -340,84 -556,185 -206,96 -263,187 -256,475z"/> <path class="fil0" d="M4089 12884c9,4 21,2 26,13l627 43c436,90 878,344 1143,686 86,111 63,174 247,112 26,-180 -197,-371 -309,-474 -245,-224 -802,-473 -1156,-536 -175,-31 -577,-116 -597,75 -19,175 -9,-2 18,81z"/> <path class="fil0" d="M14930 8477c69,-136 4,-181 62,-363 164,-510 628,-393 629,-705 -206,-99 -570,207 -696,359 -136,164 -137,141 -171,394 -26,192 -58,398 175,315z"/> <path class="fil0" d="M-243 9069c-156,-64 -597,-43 -828,-83l-789 -177c30,341 939,403 1207,408 227,4 367,67 411,-148z"/> <path class="fil0" d="M355 8895c-16,73 52,64 -23,64 0,56 11,35 -59,35l-32 157c315,-49 419,-116 651,-231 94,-47 375,-253 391,-354 24,-152 -19,-92 -27,-108 -140,-137 -370,171 -678,325 -147,73 -148,8 -223,112z"/> <path class="fil0" d="M14001 6387c146,30 269,42 424,2 210,-53 117,-118 233,-284l-70 -160c-174,-29 -288,-67 -425,41 -112,88 -184,217 -163,401z"/> <path class="fil0" d="M6885 6798c-337,73 -965,-369 -994,88 182,24 313,-9 471,24 194,41 222,117 382,134 148,-81 81,-87 319,-131 -16,-96 -27,-251 -73,-319l-106 204z"/> <path class="fil0" d="M10902 14589c129,-113 144,-164 129,-374 -143,-88 -243,-179 -431,-25 -86,70 -196,208 -168,385 137,57 322,36 470,14z"/> <path class="fil0" d="M8156 11712c378,33 472,-47 697,-210l-452 -18c-100,63 -203,156 -245,227z"/> <path class="fil0" d="M7327 12095c80,58 73,44 141,0 -34,-56 67,-59 -58,-67 -178,-10 -31,14 -82,67z"/> <path class="fil0" d="M-2076 7499c72,-209 222,-298 396,-408 37,-526 220,-331 255,-601 -298,-50 -309,103 -433,211 -66,58 -55,9 -113,96 -54,81 -197,360 -376,506 -217,-35 -95,-109 -258,-200 -90,-50 -238,-102 -316,-92 9,119 108,92 215,158 67,41 187,175 227,231 142,195 130,855 126,1209 -2,191 34,188 108,357 50,113 118,185 152,301 59,197 -45,180 -47,357 551,14 321,137 769,437l799 436c269,124 307,215 514,346 147,-25 180,-73 338,-104 406,-80 500,137 398,-386 -92,-474 -192,-139 -511,-764 -224,-438 62,-801 134,-1047 40,-139 117,-150 -6,-288 -165,45 -250,243 -313,425 -139,405 -76,848 131,1203 110,189 272,244 260,525 -341,11 -421,32 -714,-142 -266,-158 -65,-134 -420,-180 -84,-11 -145,-48 -205,-71 -443,-172 -716,-406 -924,-841 -44,-92 -117,-212 -177,-344 -48,-87 -79,-180 -94,-279 -11,-59 -15,-118 -8,-176 2,-55 9,-112 20,-171 -63,-177 -3,-484 73,-703z"/> <path class="fil0" d="M7781 17770c35,-52 86,-109 152,-170 31,-34 54,-59 57,-63l13 2c88,-73 197,-152 326,-237 64,-50 154,-108 277,-175 171,-93 544,-299 598,-468 -78,-103 -12,-22 -132,-105l-148 116c-208,229 -272,180 -633,77 -44,-345 17,-219 62,-484 -161,-12 -165,81 -269,160 -182,-8 -111,-62 -260,-41l-72 148c86,116 235,173 341,196 35,46 21,40 96,82l45 261c-184,193 -446,292 -785,283 -264,-7 -549,-51 -747,-214l-52 -42c-3,-2 -12,-7 -18,-11l-13 -73 -72 -14c-47,-136 -104,-355 -271,-334 -45,116 -22,362 91,434 45,94 30,63 81,99 117,289 939,342 1091,369 50,139 40,122 17,294 -73,63 -152,143 -247,200l-161 60c31,74 8,36 77,50 114,24 -22,-45 119,44l267 59c221,13 -13,-175 102,-419 4,-9 32,-42 68,-84z"/> <path class="fil1" d="M6885 16992c114,-54 193,3 370,-88 388,-201 191,-306 521,-99 109,68 112,20 204,117 -42,315 -996,303 -1096,70zm1043 888c151,-157 288,-273 411,-347 10,-2 20,-4 29,-7 60,-19 129,-49 201,-85l0 0 0 0c276,-138 613,-376 784,-554 90,-94 94,-203 204,-282 24,-110 27,-92 93,-137 14,-193 158,-384 219,-577 90,-284 184,-272 310,-448 75,-190 -168,-468 -193,-1022 83,-87 131,-114 264,-155 9,371 -77,321 119,550 123,144 102,263 357,278 101,-63 133,-135 238,-223 298,-251 189,-243 121,-379 176,-252 118,-219 94,-546 151,-142 326,-405 569,-424 138,140 100,460 500,470 169,-162 63,-180 156,-362 27,-53 141,-283 162,-301 33,-160 2,-27 40,-97 3,-6 17,-7 19,-21 3,-13 15,-11 21,-17l43 -168c47,-136 78,-159 117,-255 40,-99 82,-574 508,-396l35 285c60,19 173,176 344,77 246,-142 -16,-334 388,-633 272,-201 167,-177 282,-184l79 -134c6,-76 -9,-98 64,-148l72 -173c-7,-233 85,31 12,-638 -8,-70 -13,-84 -28,-145l-35 -122c-137,-513 271,-347 461,-338 179,9 341,-2 519,-6 70,-89 79,-92 122,-234 46,-168 56,-155 29,-352 -102,-93 -273,-376 34,-398l953 -99c128,204 129,266 439,265 50,-151 76,-134 155,-265l-69 -103c44,-122 37,-216 111,-313 270,-354 414,-670 466,-734 104,-127 147,-84 278,-148 239,-116 415,-593 474,-716 573,-92 392,-234 692,-415 26,-85 23,-80 53,-153 55,-132 2,-50 78,-122l31 -62 47 2 99 -87c-6,-85 42,-148 110,-212 14,-177 28,-352 -46,-483 -311,-89 -439,179 -800,19 -284,-126 -394,-211 -670,8 -403,320 -350,67 -674,34 -433,-44 -397,149 -598,276 -33,6 -779,25 -802,21 -287,-40 -116,-376 -502,-338 -278,27 -156,383 -288,562 -114,155 -334,266 -554,263 17,-219 101,-184 123,-369 81,-712 -922,-606 -894,258l-220 57c-185,-158 -266,-411 -548,-464 -105,-20 -372,-60 -457,-49 -388,52 -70,5 -721,-254 -164,-65 -229,18 -337,87 -111,72 -221,93 -349,179 -126,85 -168,151 -267,243l-210 -37c-121,-62 -48,4 -122,-108 -322,-68 -992,-339 -1429,-351 -226,-7 -331,68 -526,70 -410,4 -655,-153 -1130,-15 -180,52 -295,46 -466,133l-864 300c-518,106 -226,-474 -1205,-436 -455,18 -610,209 -683,239 -201,83 -577,0 -810,73 -196,62 -217,155 -375,190 -139,-159 -48,-187 -247,-341 -236,-83 -557,295 -740,445 -101,82 -141,91 -276,117 -703,138 -307,117 -875,-129 -141,-61 -134,-85 -260,-127 51,-261 406,-306 -985,-314 -269,-2 -584,130 -882,156 -466,40 -457,-292 -1320,66 -697,290 -297,-91 -858,-166 -349,-47 -320,-47 -568,76 -321,-87 -322,-165 -722,-84 -451,92 -663,-411 -832,332 0,0 79,132 109,106 8,136 200,202 346,257 36,180 48,508 491,507 376,0 281,237 423,514 152,296 526,65 723,122 292,84 99,508 307,693 65,-81 35,-90 106,-149 96,227 34,192 193,365 104,114 164,186 178,379 84,54 6,29 139,33l-9 -7c41,-63 -29,-57 52,-51l-37 80 14 288 -19 86 -73 30c23,144 41,163 58,306 18,157 11,135 104,223l129 5c56,-51 252,-51 268,2 278,63 414,336 985,608 141,67 357,177 477,264 256,186 3,243 467,277 136,-147 42,-166 221,-196 93,-15 280,-19 377,-13 845,51 310,502 214,733 -134,321 -16,398 -48,640 5,7 10,17 13,22l145 149c3,-7 14,11 20,18 139,1 218,32 325,123 -30,186 -174,138 -64,367l135 103c181,-39 178,-1 286,-114 212,-220 460,-717 845,-218 213,276 -97,804 100,1168 116,215 133,363 237,431 84,55 138,49 211,141 85,107 23,97 153,168 285,156 344,231 404,263 351,184 762,12 904,-17 102,-21 179,-4 278,-29 201,-195 115,-397 257,-607 5,-50 6,-108 23,-154 21,-56 17,-24 51,-55l40 -163c24,-247 33,-295 148,-441 232,-25 341,58 429,220 108,200 103,342 -102,410 -94,74 -249,97 -386,220 -98,88 -156,255 -197,402 -37,133 58,725 11,1147l8 317c25,87 8,120 66,215 48,79 90,71 110,180l134 76c156,-9 136,31 287,34 115,2 366,-135 405,461 66,60 52,44 89,146l183 185c479,391 621,84 893,265 -16,230 -440,115 -321,670 146,53 337,93 457,151 139,67 256,47 400,58 69,-97 68,-143 186,-218 19,-242 -21,-247 -35,-429l-88 -55c25,-37 27,-16 73,-40zm401 -578l0 0c-129,85 -238,164 -326,237l-13 -2c-3,4 -26,29 -57,63 -66,61 -117,118 -152,170 -36,42 -64,75 -68,84 -116,244 118,432 -102,419l-267 -59c-141,-89 -5,-20 -119,-44 -69,-15 -46,24 -77,-50l161 -60c95,-57 174,-137 247,-200 23,-172 34,-154 -17,-294 -152,-27 -974,-81 -1091,-369 -51,-36 -36,-5 -81,-99 -112,-72 -136,-318 -91,-434 167,-21 224,198 271,334l72 14 13 73c6,4 15,9 18,11l52 42c199,163 484,207 747,214 340,8 601,-90 785,-283l-45 -261c-75,-42 -61,-36 -96,-82 -106,-24 -255,-81 -341,-196l72 -148c149,-21 77,33 260,41 104,-78 108,-172 269,-160 -44,265 -106,140 -62,484 361,103 426,152 633,-77l148 -116c74,-200 257,-334 360,-608 110,-292 151,-1219 30,-1593 -64,-199 -181,-492 -403,-528 -257,252 -134,323 -413,282 18,-227 294,-509 157,-793 -215,-447 -684,-219 -684,-219 -103,-61 -116,-104 -185,-146 -44,-27 -140,-53 -200,-78 -6,-265 183,-285 443,-331 1516,-268 948,-700 1211,-1041 145,72 94,265 211,419 485,6 1186,-614 889,-1661 -34,-121 -95,-229 -165,-294 -124,-113 -204,-69 -133,-239 193,-57 413,244 509,392 180,277 39,553 117,831 0,0 -1,80 138,3 149,-83 1517,-1652 1792,-2050 74,-106 102,-100 160,-190 65,-100 40,-87 126,-192 111,-136 111,-293 348,-301l153 215c-74,156 -64,114 -165,246 -58,76 -104,157 -163,224l-1040 1219c-98,181 153,115 154,115 262,-35 124,-24 173,32 162,185 -361,320 -545,406 -596,279 -835,711 -1096,948 -120,109 -447,263 -604,378 -1,202 59,267 -127,370 -56,31 -1033,135 -1248,361 6,156 233,307 421,552 90,117 114,164 216,277 181,202 52,461 1104,221 439,-100 892,-749 763,-1171 -195,-641 -912,-349 -1019,202 -76,391 195,506 235,729 -182,126 -282,-33 -369,-203 -63,-122 -105,-406 -74,-562 62,-319 357,-633 631,-732 423,-152 790,163 840,486 75,485 -111,714 -302,1004 -359,546 -1223,463 -1401,642 -111,111 -104,414 -78,597 22,157 147,437 97,586 -38,113 -163,298 -227,438 -57,125 -167,543 -405,793 -82,86 -27,30 -99,70 -55,169 -427,375 -598,468 -123,67 -213,125 -277,175zm-10477 -9099c-11,59 -18,116 -20,171 -6,57 -2,116 8,174 14,100 46,193 94,280l0 0c61,132 134,253 177,344 208,434 481,669 924,841 60,23 121,60 205,71 355,46 154,22 420,180 293,174 373,153 714,142 12,-281 -150,-336 -260,-525 -207,-356 -270,-799 -131,-1203 63,-183 148,-380 313,-425 124,137 46,149 6,288 -71,246 -357,609 -134,1047 319,625 419,290 511,764 102,524 8,306 -398,386 -157,31 -190,79 -338,104 -207,-131 -245,-222 -514,-346l-799 -436c-448,-300 -218,-423 -769,-437 2,-177 106,-160 47,-357 -35,-116 -103,-188 -152,-301 -74,-169 -110,-166 -108,-357 4,-353 16,-1014 -126,-1209 -40,-55 -161,-190 -227,-231 -107,-65 -206,-39 -215,-158 78,-10 226,42 316,92 163,91 41,166 258,200 179,-146 322,-426 376,-506 59,-88 47,-39 113,-96 124,-108 135,-261 433,-211 -35,271 -218,76 -255,601 -174,110 -324,199 -396,408 -76,220 -136,527 -73,703zm163 178c-21,-50 -32,-111 -34,-185l2 0c38,-380 33,-628 253,-840 125,-121 197,-97 267,-260 83,-194 -7,-166 171,-347 296,-32 320,18 427,203l-51 234c-85,55 -227,110 -328,163 -761,398 -381,811 -275,855 203,84 201,-41 389,104 239,186 656,-59 1137,-108 24,174 -137,516 -238,580 -281,178 -1027,31 -1392,-155 -225,-115 -297,-194 -326,-245zm9937 7791c6,-99 -11,-132 92,-96 34,51 51,-71 14,76 -8,4 -18,5 -22,14 -4,9 -20,8 -24,9 -104,9 21,6 -59,-3zm963 -636c248,73 143,79 396,20 -13,120 -30,142 -170,144 -157,3 -198,-34 -226,-164zm164 -175c-64,-214 85,-290 312,-272 -34,210 -57,443 -312,272zm-632 1254c88,-346 168,-410 -305,-670 -196,-108 -265,94 -411,156 -126,-166 -89,-393 -29,-588 93,-304 71,-279 89,-635 282,-247 445,-131 618,-14 -13,368 -100,97 -275,381 -318,517 170,872 527,633 149,-100 184,-65 376,-26 220,45 138,191 55,316 -164,246 -262,466 -645,446zm810 -1693c-253,73 -234,43 -207,-309 141,-22 162,19 231,81l-25 228zm1645 -334c-148,22 -333,43 -470,-14 -27,-178 83,-315 168,-385 188,-154 288,-63 431,25 15,210 0,262 -129,374zm-5686 305c-96,-348 282,-685 547,-579 -14,185 36,72 -134,156 -99,49 -207,199 -265,299 -89,153 7,137 -149,124zm3994 -740c97,98 119,158 70,279l-272 -31c-98,-182 -100,-299 202,-248zm-2939 2004c-48,-591 41,-910 321,-1326 225,-335 629,-677 1007,-689 -54,95 -293,232 -450,366 -335,287 -507,610 -636,1012 -38,117 -95,201 -118,316 -74,376 36,237 -124,322zm145 -1877c-7,119 -11,339 -73,412 8,222 -112,441 -271,535 -218,128 -534,-49 -515,276 283,63 365,21 449,290 77,248 119,375 44,650 -418,75 -685,-11 -749,-434 -26,-173 -53,-399 -18,-589 127,-700 413,-648 538,-724 140,-86 122,-268 166,-467 68,-303 385,-550 721,-480 387,81 503,-173 1017,-63 824,176 664,302 776,495 106,182 209,52 315,321 136,346 101,1257 -493,1256 -163,-192 -192,-270 -34,-463l352 -19c60,-291 -136,-608 -302,-688 -290,-139 -609,23 -751,185 -65,491 307,562 -331,795 36,242 157,202 237,396 183,446 -333,1017 -765,723 -98,-67 -38,-14 -69,-87 -93,-36 -82,-36 -173,-101 -27,-290 50,-468 259,-574 109,-20 65,80 296,43 -37,-159 -55,-121 -85,-219l-94 -76c-8,-2 -123,57 -70,-186 38,-172 329,-354 452,-362l33 -211 -102 -67c31,-211 194,-344 334,-438 226,-152 287,-186 586,-113l74 -77c-322,-590 -1102,59 -1495,64 -69,-150 9,-142 -106,-257 -90,44 -43,-23 -105,115 -16,36 -34,95 -47,138zm-2784 -227c-10,-169 -4,-363 49,-508 26,-72 471,-652 975,-352 8,250 19,479 -55,708 -108,332 -161,353 -391,378 -17,-938 -396,-284 -577,-226zm3537 -615c-15,-205 83,-209 258,-270 530,-186 370,105 666,144 143,19 141,-97 412,-58 134,144 190,279 35,434 -215,15 -404,-125 -650,-168 -228,-40 -551,16 -722,-82zm-4162 66c21,-154 18,-131 72,-219 41,20 119,33 87,135 -25,80 -75,79 -159,84zm7152 143c-246,103 -455,-183 -559,-319 -81,-106 -383,-398 -126,-615 69,-59 245,-142 362,-114 166,40 103,200 97,344 -13,327 225,502 225,704zm346 -750c570,-25 446,-97 490,-460 331,5 230,563 82,787 -179,272 -593,120 -572,-327zm-4620 730c-265,-342 -708,-596 -1143,-686l-627 -43c-5,-10 -17,-9 -26,-13 -28,-83 -37,94 -18,-81 20,-192 423,-106 597,-75 353,63 910,311 1156,536 112,103 335,294 309,474 -184,62 -160,-1 -247,-112zm419 -563c95,132 275,159 168,343 -22,14 44,43 -116,43 -102,0 -168,-77 -258,-145 -118,-89 -178,-137 -287,-240 -187,-179 -430,-258 -622,-404 -73,-419 144,-487 495,-174 90,80 243,172 353,247 185,127 146,164 266,331zm4329 -381c3,-137 29,-165 163,-166 68,115 51,70 11,189 -81,20 -109,14 -174,-23zm-6867 -305c-104,184 -130,38 -136,35 62,-66 -88,-11 55,-69 139,-56 46,11 81,33zm1313 852c56,266 -29,558 -92,771l-220 632c0,0 -1054,467 -1542,-323 -170,-274 -393,-206 -460,-630 -79,-498 103,-695 99,-950 -163,-175 -250,-110 -437,-363 -68,-92 -125,-119 -120,-307 3,-112 9,-198 83,-235 274,-135 410,201 464,427 227,-21 466,-418 620,-91 96,205 -55,205 -73,456 255,90 520,5 509,354 -6,218 -330,308 -547,280 -83,-36 -267,-473 -429,-34 -73,196 -49,525 16,665 386,37 171,-220 381,-477l157 48c24,319 -183,444 173,988l168 17c78,-184 28,-406 168,-487 128,85 44,77 44,239 -1,394 426,238 519,140 25,-26 154,-304 173,-358 242,-690 -16,-577 220,-837l126 75zm1546 -1125c10,87 -13,227 45,281 195,184 93,-356 322,-550 190,36 80,40 215,146l-41 471c272,34 135,-104 354,-178 252,13 102,536 -229,720 -135,75 -223,73 -298,194 -108,175 7,209 -123,340 -304,62 -145,-151 -218,-354 -51,-141 -174,-201 -267,-330 -342,-477 -163,-1135 240,-740zm843 -8c-68,44 -60,58 -141,0 51,-52 -96,-77 82,-67 125,7 25,11 58,67zm-2474 -313c59,-51 130,-99 184,-162 82,-96 24,-108 158,-156 43,49 53,79 104,139 441,526 566,240 613,884 -206,-13 -244,-127 -370,-210 -451,-297 -392,-206 -559,-75 -113,88 -215,67 -216,-70 -2,-186 42,94 86,-350zm-1994 144c-19,106 24,65 -80,87l80 -87zm11123 -7c5,-61 -6,77 0,0zm-7443 -70c56,-61 -16,-130 138,-35 -56,89 -12,121 -138,35zm-2444 599c-12,25 -157,142 -307,69 -57,-89 -22,-65 -47,-170 -44,-190 -882,-646 -421,-626 136,6 871,522 775,727zm-1504 -709c42,-211 231,-250 403,-137 -14,183 -247,176 -403,137zm-1205 216c-12,-224 124,-208 323,-280 134,-49 312,-102 461,-38 -20,88 -10,59 -64,118l-254 169c-175,72 -295,83 -466,30zm5836 -205c-176,63 -270,-66 -301,-223 -49,-246 32,-320 246,-310 75,164 183,346 55,533zm793 -38c42,-72 145,-164 245,-227l452 18c-225,163 -319,243 -697,210zm3681 1299c137,-157 217,-159 335,-388 346,-671 282,-1436 844,-1338 95,265 -264,1002 -343,1240 -36,108 -447,974 -573,1075 -134,-59 -133,-144 -185,-261 -67,-152 -99,-108 -79,-329zm1379 -1263c8,-200 23,-440 173,-511 159,-75 392,-129 566,-77 79,351 -341,640 -739,588zm-7724 -552c229,-40 359,131 533,213 183,85 402,89 586,150 -63,309 -407,416 -695,236l-405 -396c-54,-105 -56,-61 -20,-203zm2045 671c391,-78 1158,274 1619,-426 40,-61 278,-705 482,-513 73,69 -29,317 243,299 150,-10 157,-153 283,-235l140 17c64,241 18,295 -134,422 -583,487 -522,-157 -817,-83 -375,263 57,706 -747,912 -227,58 -493,146 -733,52 -136,-53 -330,-380 -336,-446zm477 -1524c145,-39 177,-133 244,-213 352,-57 500,106 660,251 129,116 220,485 196,728 -243,366 -447,160 -743,156 -100,78 -73,120 -231,218 -107,67 -173,131 -338,132 -336,-74 -598,-936 35,-1400 104,61 68,65 176,129zm-3523 1074c754,97 717,-990 881,-1134 72,130 33,21 36,227 4,332 150,157 -49,584 -95,205 -74,146 -178,280 -81,105 -91,165 -228,231 -543,263 -993,-329 -727,-625 227,-252 74,278 265,436zm7444 149c-7,-288 50,-379 256,-475 216,-100 262,-142 556,-185 202,-29 482,-37 693,-54 525,-43 454,-115 551,9 -166,265 -1207,126 -1536,319 -80,47 -14,10 -60,44 -462,340 -42,388 -116,608 -176,9 -261,-139 -343,-267zm-5799 -352c-189,69 -408,-228 -459,-403l308 38c50,19 42,27 74,43l77 322zm4806 625c10,-155 167,-271 260,-363 197,-194 867,-832 1134,-686 -48,97 -111,85 -220,155 -90,57 -145,113 -208,179 -490,513 161,738 224,1014 25,108 -59,428 -276,455 -53,-66 7,38 -49,-69 -246,-474 -120,-634 -864,-686zm-7118 -600c-151,-176 -63,-305 8,-516 63,-188 46,-334 201,-415 111,74 197,316 157,468 -17,63 -88,130 -125,222 -43,106 -31,153 -77,243l-165 -1zm6023 -177c-78,-89 -91,-379 -35,-506 151,-22 105,4 212,78l349 -19c40,242 -74,163 -270,220 -192,55 -147,156 -255,227zm3509 -528c112,-46 201,0 244,103 -69,39 -139,49 -259,28l14 -131zm-8251 14l-15 95c-34,-16 -61,46 -55,-54 6,-104 14,-19 70,-41zm7562 138c-88,-404 -20,-1191 351,-1239 170,234 181,1015 80,1255l-431 -16zm-6989 -584c61,-270 625,-630 967,-332 26,189 -37,225 43,408 252,58 284,-68 553,-21 260,480 -115,995 -459,1161 -508,244 -541,-526 -633,-665 -190,-36 -472,63 -510,-155 -55,-55 -16,77 -44,-92 -5,-30 -4,-112 -1,-144 11,-126 14,-109 85,-160zm-4252 1220c-20,-301 -266,-347 -418,-534 -277,-340 -187,-795 273,-593l39 245 106 -1c53,-137 20,-212 145,-275 113,-57 162,-19 238,64 64,323 -118,330 -189,581 -159,561 593,323 651,318 126,-11 262,-6 389,-9 131,-3 261,1 390,8 178,9 89,20 253,75 578,194 1561,709 1608,1390l-384 -73c-49,-227 -354,-594 -515,-716 -653,-492 -1853,-551 -2443,-163 -158,104 -254,118 -211,392 267,231 422,134 778,113l-5 199c-222,150 -241,-8 -416,288 -72,122 7,50 -112,103 -68,-127 -9,-150 -68,-255 -40,-71 -80,-75 -174,-107 -525,-178 -414,-693 66,-1049zm8185 -963c1,287 19,411 -292,395 -68,-75 -163,-225 -186,-396 163,-53 109,-79 478,1zm4388 265c-143,-164 -398,-219 -695,-216l-13 -180c33,-20 -11,-22 114,-46 193,-37 280,31 369,57 424,125 728,420 616,975 -44,217 -268,529 -401,653 -133,124 -250,107 -365,446 -1,4 -33,105 -34,106 -82,175 71,-31 -43,47 -92,-118 -33,-179 -175,-265 -182,-110 -209,45 -292,-142 132,-210 161,51 713,-245 367,-197 587,-754 205,-1192zm-4052 -612c189,-118 559,183 339,442 -317,22 -413,-141 -339,-442zm-2531 121c93,53 64,-7 78,139 -118,-34 -144,-18 -78,-139zm-4412 589c53,-322 -85,-542 296,-701 382,-159 -16,546 -16,546 -201,438 -331,404 -589,389 -341,-20 -601,68 -926,18 9,-308 111,-163 331,-252 160,-64 180,-123 384,-127 24,8 240,341 520,127zm1867 -348c-74,-164 219,-417 458,-285 -7,195 -58,74 -203,208 -83,76 28,52 -123,96 -171,50 -120,-14 -131,-19zm2984 -322c75,-131 250,-120 333,-70 -77,66 -217,152 -333,70zm-1038 -39c-5,-140 -6,-123 71,-196 101,43 111,72 140,173l-211 23zm491 -67c-20,-172 56,-262 241,-271 35,112 50,97 18,208 -107,81 -95,78 -259,63zm-2060 -352c226,-284 453,-78 464,-62 58,215 -47,322 -163,415 -234,13 -322,-118 -301,-353zm2835 104c-42,-100 -24,-108 22,-195l188 9 -26 188c-33,17 -23,38 -108,37 -160,-2 -3,14 -76,-39zm-401 -22c-343,-219 -199,16 -264,-188 100,-65 146,-42 281,-48 15,38 8,-4 24,83 1,4 6,96 7,102 96,5 144,18 204,53l-7 149 -204 52 -40 -204zm-975 -135c40,-100 50,-174 147,-262l128 15c117,282 -54,199 -275,247zm1111 -96c32,-109 68,-172 214,-120 -5,137 -105,173 -214,120zm-7748 757c-227,-27 -436,-185 -536,-329 -282,-30 -492,-10 -705,-150 -270,-179 -379,-233 -369,-447 239,2 334,73 538,101 827,113 638,-104 874,397 90,192 149,151 198,429zm15122 -940c103,-65 89,11 101,9l20 121 -177 -7c7,-66 10,-94 56,-122zm-4322 687c-97,-35 -69,-26 -142,-107 -213,-237 -833,-399 -246,-867 415,62 666,645 388,974zm-2665 -617c-3,-8 -8,-19 -8,-25 -15,-154 64,-252 222,-257 24,104 78,252 -40,305 -159,72 -109,28 -173,-24zm345 13c-4,-155 -21,-119 65,-209 64,14 68,25 101,105 -64,101 -17,81 -166,104zm-3462 244c-121,193 69,400 -311,385 -52,-158 -4,-348 13,-529 -130,-118 -172,-178 -173,-397 140,0 203,82 295,197 204,254 62,223 289,205 -42,76 -8,21 -62,84 -55,64 -8,-13 -51,55zm1993 -313c207,-399 -52,-220 161,-384 215,93 2,63 141,261 67,-40 22,-7 79,-54l251 -82c28,76 55,114 53,226 -228,201 -196,30 -374,161 14,-37 48,-60 -9,-155 -95,33 -78,60 -118,169 63,50 -72,26 105,56 -104,104 -81,132 -164,299 -99,15 -84,36 -192,-29 -32,-163 -4,-99 137,-256l-70 -210zm755 -109c30,-145 173,-178 289,-130l-23 149c-136,66 -106,10 -266,-19zm6436 161c229,-10 155,-524 490,-636 118,-39 176,21 253,68 51,229 57,254 5,441 -43,153 -116,254 -123,387 168,82 607,-162 505,312 -408,208 -559,-14 -844,35 -196,165 -98,247 -199,394 -106,-28 -129,-28 -149,-241 -54,-581 -117,-283 -337,-434 -206,-141 -290,-653 -7,-758 416,-19 333,95 406,432zm-12879 -480c189,229 -45,444 -239,380 -173,-57 -50,-399 239,-380zm-2461 136c231,40 672,19 828,83 -44,215 -184,152 -411,148 -268,-4 -1177,-67 -1207,-408l789 177zm11128 398c-20,-17 -292,-326 -298,-338 -45,-96 -31,-484 -3,-582 178,44 170,296 336,438 143,-40 42,-59 227,-98 -62,218 29,44 -107,138 -173,121 -42,266 -156,441zm-2257 -562c94,34 109,28 132,149l-104 3c0,-1 -49,-48 -27,-152zm-317 -7c95,-46 40,-51 146,4 -19,142 -75,131 -181,184 -6,-143 -27,-87 36,-188zm3712 -14c132,9 298,8 435,-29 136,-37 316,-127 385,-144 245,-60 436,348 289,606 -98,171 -331,371 -489,568 -137,172 -314,472 -533,508l308 -735c71,-93 272,-163 99,-514 -197,-2 -275,93 -451,-119 -66,-79 -59,-20 -42,-141zm-3179 18c37,-91 59,-87 183,-125l157 160c-90,120 -264,147 -340,-35zm830 458c-32,-366 -319,-319 14,-635 148,-141 498,-194 725,-93 54,232 -22,376 -7,614 107,68 135,47 206,180 184,349 177,583 -193,731 -651,261 -841,-208 -967,-304 -27,-271 112,-347 223,-493zm-2030 -529c-6,102 -31,147 -69,212 -78,-62 -112,-71 -93,-205l162 -7zm194 -56c47,-36 1,-46 93,-49 70,-3 84,18 90,71 9,84 -111,135 -178,176 16,151 72,162 -22,291l-184 -13c8,-314 119,-9 168,-444l34 -32zm6303 1350c41,-353 -165,-656 -4,-1004 137,-296 447,-638 577,-360 -72,127 -109,19 -288,263 -89,121 -72,327 -46,477 48,280 186,371 361,479 128,79 77,-2 98,161 -253,8 -454,-126 -699,-17zm-5834 -1375c-189,30 -221,-54 -147,-211l146 19c31,74 34,119 1,192zm289 30c-105,-69 -112,-64 -85,-222l230 -8c-11,168 -18,182 -145,231zm-7494 299c18,-96 -6,-84 82,-99 75,-105 77,-39 223,-112 307,-154 538,-462 678,-325 9,16 51,-44 27,108 -16,101 -297,307 -391,354 -232,115 -337,182 -651,231l32 -157zm11208 543c-227,415 -317,841 -556,775 -8,-286 675,-974 -412,-1528 -200,-102 -425,-98 -419,-349 236,-5 658,279 804,387 717,534 122,410 735,389 -20,166 -86,205 -152,326zm-8335 -1151c197,-173 329,185 111,297 -75,-99 -104,-183 -111,-297zm2273 313c-43,-166 53,-595 198,-707 81,37 85,-67 115,226 10,98 22,154 22,247 -181,175 -231,238 -335,233zm2594 -458c94,61 104,71 83,204l-97 0c-50,-113 -56,-105 14,-204zm-5044 1180c285,59 337,-59 518,-230 193,-183 515,-721 653,-971 83,-149 114,-108 190,-196 103,-119 -3,-142 195,-213l305 282c73,76 117,283 140,433 55,356 244,481 377,724l-118 109c-111,-54 -23,3 -106,-82 -615,-627 -201,-783 -564,-797 -96,249 -86,153 -123,470 -21,178 -16,328 19,506l186 89c20,155 -55,307 -35,505l283 835c100,180 62,265 -119,341 -289,-96 -335,-506 -471,-808 -203,-451 -126,-525 -181,-781 -29,-133 -28,-119 -132,-153 -116,328 19,374 -192,865 -163,379 -177,882 -511,652 12,-173 327,-530 449,-1559 -205,67 -327,277 -583,500 -343,299 -262,391 -304,600 -24,120 20,3 -48,86 -131,-73 -47,-7 -100,-160 -18,-52 -47,-100 -68,-137 -259,-9 -386,185 -676,211 6,-437 152,-338 448,-498l298 -194c499,-288 -87,-437 133,-744 154,65 8,17 136,315zm7771 -976c-60,25 -102,56 -211,-23 0,-92 97,-93 207,-70l4 93zm1762 285c-310,-405 -256,-543 -54,-791l204 15c83,86 190,348 207,512 -80,172 -125,279 -357,264zm-7308 2c-146,-164 -205,-514 70,-551 45,108 22,458 -70,551zm3995 -422c-9,-241 128,-556 374,-543 52,24 219,328 -30,594l-344 -51zm6593 80c-8,18 14,53 -142,164 -89,63 -178,68 -299,24 -130,-37 -62,-24 -99,-48 -6,-4 -15,-9 -20,-22 -4,-12 -10,-16 -16,-23 -265,-40 74,-769 343,-711 169,-163 354,0 386,169 34,180 -7,346 -153,448zm-16722 -237c48,124 -16,56 -33,83 -205,-98 -37,-137 -35,-139 81,43 33,-34 68,56zm3822 157c-37,-266 494,-729 830,-441 173,149 168,70 293,210 -11,136 -100,266 -179,395 -78,127 -131,157 -219,342 -339,709 -827,354 -312,10 344,-230 243,-349 112,-644 -305,27 -295,165 -525,129zm-2559 1026c105,-40 65,-43 184,-65 238,252 190,488 704,501 246,6 289,-67 529,-71 310,-5 271,40 457,-135 12,-321 -128,-246 -177,-430 -119,-452 66,-350 -227,-931 -66,-130 -56,-343 -3,-458 121,4 171,70 266,149 26,344 -21,525 123,801 75,144 90,153 194,266 152,165 81,85 265,175 -62,243 26,283 -17,528 -85,88 -374,312 -497,349 -226,67 -144,23 -322,-24 -169,-45 -239,14 -379,46 -155,-46 -214,-135 -405,-71 -159,53 -161,79 -334,-21 -170,-98 -380,-321 -361,-607zm645 -60c429,334 770,-128 567,-599 -212,-493 -354,-402 -598,-546l22 -200c356,-22 691,292 805,548 82,184 91,342 102,553 17,321 176,230 148,479 -160,22 -302,6 -441,27 -130,20 -243,73 -398,70 -237,-4 -457,-202 -482,-338 -25,-138 -9,-4 16,-65 94,-120 143,-18 257,71zm4945 -1508c12,-178 248,-285 479,-256 106,13 797,251 632,780 -96,307 -141,231 -461,272 -113,153 -163,147 -31,432 53,114 50,157 76,282l-48 33c-153,85 -332,166 -523,182 -117,10 -400,-88 -467,-275 -67,-16 -50,-115 -54,-187l-152 36c72,-214 14,-38 207,-90 51,-176 169,-237 319,-368 39,-231 -39,-280 -4,-552 -46,-36 -54,-56 -49,-150 6,-103 29,-100 78,-138zm-5625 247c-27,97 96,63 -95,52l95 -52zm-597 64c12,-133 26,-111 119,-77 25,106 -3,129 -119,77zm15532 727c363,-148 1111,234 1940,-498 139,-123 64,-474 380,-389 2,148 -221,458 -282,531 -233,276 -259,93 -282,580l-65 47c-95,-81 -143,-210 -377,-156 -206,48 -1068,185 -1261,73 -28,-16 -61,-50 -71,-80 -41,-125 17,-106 18,-108zm-2138 -650c-225,3 -342,-246 -234,-454 97,-187 72,-417 333,-432 -15,285 91,724 -99,886zm-4404 -1064l37 -98c46,32 53,-47 34,77 293,5 430,301 415,622 -15,327 -212,518 -379,667 -271,39 -159,38 -352,106 -237,-80 -192,-244 -352,-411 -225,28 -241,194 -564,165 -217,-94 -390,-953 157,-1075 311,-70 313,256 531,210 62,-13 327,-224 475,-262zm-11529 293c3,10 6,21 9,32 1,3 10,79 12,92 89,531 395,728 233,870 -191,-198 -97,-176 -300,-265 -29,-284 -272,-655 18,-792l28 63zm4059 412c-317,36 -203,-249 53,-196 9,125 16,101 -53,196zm-3747 -224c69,166 -23,120 -23,121 -37,-65 -56,-97 -58,-200 52,30 81,77 82,79zm19048 881c-106,-233 49,-218 148,-325 109,-118 128,-259 121,-440 -31,-70 -150,-92 -199,-111l-50 -29c33,-272 472,-153 477,-150 70,42 192,386 179,453 -22,114 -130,390 -214,449 -98,69 -357,172 -462,152zm-1584 23c-234,82 -201,-123 -175,-315 34,-253 35,-230 171,-394 126,-152 490,-458 696,-359 -1,312 -465,195 -629,705 -59,182 7,227 -62,363zm-895 -390c-9,-257 216,-395 461,-642 218,-220 323,-330 744,-254 2,225 54,96 -211,292 -653,484 -233,1257 -994,604zm-7306 -643c0,-574 827,-327 368,160 -142,-1 -262,-90 -368,-160zm-895 -141c25,-192 151,-259 381,-240 197,16 361,47 355,240 -127,70 -280,44 -429,66 -201,30 -209,59 -307,-66zm-5367 1306c-53,-484 368,-1597 714,-1517 21,290 -165,238 -321,599 -136,316 -119,419 -140,782 -99,79 -111,123 -253,136zm15792 -1341c33,-93 -8,-70 141,-103 165,-36 460,-79 603,-32l-89 130c-174,12 -120,-37 -324,16 -148,39 -210,71 -331,-12zm-2537 139c-24,-240 102,-475 378,-413 -10,121 -85,148 -164,241 -197,234 -92,155 -214,172zm1947 -83c-122,-65 -102,-77 -193,-157 -107,-93 -116,-24 -237,-114l-220 -139c143,0 176,-43 288,-86 128,-1 634,362 686,389 119,62 155,184 220,304 77,140 118,179 222,276l213 -12c-34,387 -245,81 -322,469 -52,261 -149,359 -427,350 20,-247 173,-87 197,-561 18,-353 -153,-573 -425,-719zm-7841 -331c32,-46 18,-71 126,-101 82,-23 484,-19 602,36 -50,60 -238,179 -334,186 -88,7 -280,-90 -394,-121zm1271 98c-16,-527 607,-583 790,-503 164,436 -344,484 87,1360 86,175 196,212 226,339l-379 -104c-7,-154 40,-311 -28,-433 -69,-124 -129,-114 -274,-192 -183,-98 -255,-336 -421,-467zm-2108 -498c45,69 57,223 73,319 -238,45 -171,50 -319,131 -161,-18 -189,-94 -382,-134 -158,-33 -290,0 -471,-24 30,-458 658,-16 994,-88l106 -204zm-3641 546c654,-427 1878,-571 2259,-260 -239,70 -567,-34 -839,-12 -147,12 -258,61 -389,78 -203,26 -146,-3 -290,144l-95 -91c-292,34 -472,213 -646,142zm12275 -364c66,-154 620,-413 987,-33l-47 245c-170,99 -797,76 -940,-211zm-14793 324c-59,98 -137,146 -195,263 -89,183 8,206 -164,287 -107,-25 -102,-37 -166,-139 -103,-165 -325,-224 -502,-420 -137,-150 -568,-764 0,-625 152,172 59,297 246,496l227 -5c88,-38 140,-242 182,-265 290,-42 554,106 373,407zm10070 881c-1,-225 142,-382 266,-518 358,-394 503,-589 1092,-809 372,-139 253,-36 277,-18 -72,52 -168,90 -263,140 -104,55 -130,69 -219,131 -129,91 -97,145 -186,202 -92,59 -126,27 -230,121 -635,573 -391,679 -737,752zm-3105 -1253l-135 76c-91,72 -266,132 -388,122 -7,-10 -90,-86 -86,-215 14,-457 1235,-349 1479,-337 156,284 -140,357 -335,341 -248,-21 -349,23 -534,14zm-10309 246c-71,-299 311,-468 565,-529 -23,165 -15,104 -101,204 -208,241 -156,405 -463,325zm-1725 -445c114,-72 271,56 411,107 206,76 268,75 509,93l29 125c-228,-11 -802,-218 -949,-324zm5921 457c-35,-44 -11,50 -57,-86 -21,-60 -18,-94 -23,-159l2 -64c247,-54 572,-78 738,-251 150,-156 275,-364 604,-351 87,157 89,354 -16,513 -94,141 -272,135 -402,223 -41,162 -2,124 -3,292 -98,66 -186,81 -278,143 -116,79 -59,137 -112,273 -120,31 -290,47 -363,-109 -27,-57 -90,-388 -90,-425zm15802 -151c336,-114 667,-473 1262,-571 -65,137 -151,151 -321,215 -233,88 -519,286 -599,320 -471,199 -303,76 -343,37zm-12753 -420l23 79c-298,266 -823,-54 -1172,53 -140,43 -45,5 -84,88 8,6 18,15 24,19l80 37c10,3 60,11 75,14 -27,143 39,37 -145,134l-433 342c-91,69 -171,176 -271,258 -107,89 -224,119 -188,306 176,7 752,-609 1267,-491l-14 155c374,0 377,-434 979,-310 36,52 60,73 64,134l-11 157 127 -10c12,-22 317,-388 603,-323 63,185 104,294 -2,461 -85,134 -115,287 -229,369 -238,171 -656,158 -707,-243l-95 -200 -125 10c-94,178 -202,344 -467,357 -322,16 -423,-590 -1095,89 -174,176 -280,174 -273,498 125,113 236,107 344,209 174,270 -386,613 -720,-16 -202,-381 64,-1214 412,-1456 413,-288 184,-192 425,-566 43,-67 160,-257 236,-293 796,-379 752,129 1144,-192 232,-190 402,-239 794,-188 795,103 664,721 389,783 -239,54 -340,-255 -811,-376l-134 -8 -11 119zm9639 483c192,-26 97,2 200,-120 79,-94 58,-51 175,-106 1004,-469 549,-820 910,-803l38 237c264,129 827,-56 928,64 109,306 -527,205 -825,284 -774,206 -805,489 -1060,629 -216,119 -446,346 -600,531 -28,34 -101,136 -123,158 -185,179 -194,36 -205,24 -108,-214 133,-364 242,-480l183 -205c129,-115 70,-18 136,-215zm-14273 -919c395,44 336,11 436,170 77,122 667,283 932,798 113,220 219,737 112,1008l-78 -10c-83,-111 -30,-176 -57,-349 -10,-62 -51,-225 -75,-308l-148 -333c-91,-228 -397,-419 -640,-437 -356,-27 -233,239 -454,281 -106,-210 -113,-454 -365,-511 -218,-49 -569,214 -630,-111 136,-154 293,-67 495,-109 183,-39 198,-120 473,-89zm-1034 459l91 79c87,29 262,212 324,301 86,122 68,278 218,416 66,61 421,229 494,462 79,252 -15,251 -23,256 -125,96 -523,-423 -620,-50 -3,12 -3,59 -12,95 -12,51 -46,101 -79,147 -285,31 -228,-91 -326,-268 -189,8 -110,28 -247,91 -77,36 13,1 -85,23 -44,50 -49,50 -157,43 -131,-9 -95,-23 -137,-81 -18,-15 -45,78 -29,-104 22,-246 285,-305 598,-499 357,-221 61,-653 -124,-813 -492,-424 -1094,-333 -1524,116l-174 128c33,-323 158,-445 409,-563 214,-101 476,-164 733,-200 110,55 258,138 370,209 203,128 213,65 299,211zm7029 20c31,-30 19,-24 67,-56 239,-158 709,-322 971,-406 386,-123 871,-145 1306,-133 138,4 232,41 350,42 123,1 210,-39 319,-44 129,-5 480,50 621,86 188,48 1011,254 1088,334 -71,72 -404,120 -535,155 -202,55 -371,-44 -612,-44 -580,-1 -674,685 -851,421 -142,-213 505,-524 -101,-543 -253,-8 50,-77 -528,-82 -866,-7 -1699,608 -2096,269zm-9311 135c-78,-155 -68,-224 -269,-245l13 180c-343,-37 -354,-110 -601,-208 -169,-67 -491,-49 -603,-180l133 -54c97,-36 161,-92 316,-70 200,29 211,130 437,137 0,0 224,-221 578,-97 670,236 276,1098 -5,535zm17219 -205c-21,-183 51,-312 163,-401 137,-108 251,-70 425,-41l70 160c-117,166 -24,231 -233,284 -155,39 -278,28 -424,-2zm-3099 176c131,-87 144,-212 275,-359 646,-726 1202,-71 1205,-70 275,30 427,-181 812,6 165,80 376,316 398,528 -124,123 -110,51 -192,137 -46,48 -100,157 -132,243 336,-55 154,-217 421,-339 232,-106 643,-246 876,-83 -144,184 -327,62 -711,280 -233,132 -311,366 -276,716 34,342 412,682 671,810 273,135 211,50 304,139 -33,64 -60,89 -95,133 -139,-2 -179,-30 -281,-94 -83,-52 -159,-72 -239,-115 -515,-278 -596,-746 -622,-945 -34,-252 51,-316 -88,-476 -63,27 -257,96 -328,147 -120,88 -101,156 -153,304 -111,318 -358,109 -548,342 -146,433 71,457 -415,670 -246,107 -633,164 -838,-40 -17,-217 58,-314 172,-406 188,-10 221,48 382,44 366,-10 315,-90 334,-128 -109,-153 44,-21 -227,-92 -278,-74 -13,-539 281,-554 252,-13 594,102 669,-192 -156,-7 -230,45 -388,-7 5,-227 246,-330 440,-405 431,-168 520,-44 585,-229 -131,-159 -480,-113 -704,-71 -202,37 -466,0 -692,27 3,-144 56,-185 61,-339 -387,165 -133,1025 -991,1019 -145,-165 -54,-134 -124,-294 -162,103 -72,485 -40,563 133,332 54,221 82,568 -167,127 -481,245 -624,-20 -79,-148 -256,-506 -244,-676 18,-257 214,-516 329,-622 322,-299 543,-121 657,-118zm-15930 -465c67,-55 165,-16 258,9l-96 104c58,97 164,182 249,262 104,99 156,172 231,255 288,50 603,87 784,273l-27 183c408,-9 212,-183 531,-118 39,319 -208,489 -511,438 -318,-53 -281,-381 -419,-562 -114,-66 -314,-66 -456,-115 -212,-74 -173,-95 -196,-336 -131,-75 -345,-204 -349,-394zm22871 22c215,-100 151,-256 339,-343 175,-81 398,-5 582,14l95 134c231,17 272,-99 547,-76 -5,288 -57,256 -202,385 -125,112 -124,225 -201,366 -330,602 -627,60 -715,423l-14 220c-113,661 -1344,610 -1030,-137 490,-150 376,151 643,200 -1,-150 -27,-146 -85,-250 76,-232 166,-200 414,-295 280,-107 242,-96 573,-104 12,-261 -123,-208 156,-367 90,-51 249,-167 276,-290 -241,-19 -394,121 -718,105l-60 -121c-177,79 -72,214 -347,371 -848,486 -385,23 -827,-17 19,207 127,227 72,417 -144,488 -726,-10 -623,-298 386,-1077 966,-389 1126,-337z"/> </g> </svg>